<svg width="30" height="30" viewBox="0 0 30 30" fill="none" xmlns="http://www.w3.org/2000/svg">
<g clip-path="url(#clip0_70_191)">
<path d="M15 30.0001C23.2843 30.0001 30.0001 23.2843 30.0001 15C30.0001 6.71574 23.2843 0 15 0C6.71574 0 0 6.71574 0 15C0 23.2843 6.71574 30.0001 15 30.0001Z" fill="#205B1C"/>
<path d="M25.6061 4.3916C31.464 10.25 31.4645 19.7478 25.6061 25.6062C19.7482 31.4641 10.2499 31.4643 4.39153 25.6062L25.6061 4.3916Z" fill="#205B1C"/>
<path d="M29.6985 18.0043L22.2745 10.5806L13.5187 11.5775L8.2224 19.7769L18.1189 29.6732C23.9375 28.4423 28.5119 23.8397 29.6985 18.0043Z" fill="#194716"/>
<path d="M22.8496 12.1053C22.8496 10.8478 21.8309 9.82861 20.5741 9.82861H9.89841C8.6419 9.82861 7.6234 10.8481 7.6234 12.1053V18.2102C7.6234 19.4677 8.64209 20.4869 9.89841 20.4869H20.5739C21.831 20.4869 22.8494 19.4674 22.8494 18.2102V12.1053H22.8496ZM13.7134 17.7332V11.9992L18.0618 14.8663L13.7134 17.7332Z" fill="#F1F1F1"/>
</g>
<defs>
<clipPath id="clip0_70_191">
<rect width="30" height="30" fill="white"/>
</clipPath>
</defs>
</svg>
