<svg width="40" height="40" viewBox="0 0 40 40" fill="none" xmlns="http://www.w3.org/2000/svg">
<circle cx="20" cy="20" r="20" fill="#D9D9D9"/>
<path d="M27 12C27 13.1615 26.2938 14.2743 25.026 15.1195C23.7616 15.9624 21.9861 16.5 20 16.5C18.0139 16.5 16.2384 15.9624 14.974 15.1195C13.7062 14.2743 13 13.1615 13 12C13 10.8385 13.7062 9.72572 14.974 8.88049C16.2384 8.03759 18.0139 7.5 20 7.5C21.9861 7.5 23.7616 8.03759 25.026 8.88049C26.2938 9.72572 27 10.8385 27 12Z" fill="black" stroke="black"/>
<path d="M31 25.5C31 27.0353 29.894 28.5258 27.8857 29.6609C25.8926 30.7874 23.1056 31.5 20 31.5C16.8944 31.5 14.1074 30.7874 12.1143 29.6609C10.106 28.5258 9 27.0353 9 25.5C9 23.9647 10.106 22.4742 12.1143 21.3391C14.1074 20.2126 16.8944 19.5 20 19.5C23.1056 19.5 25.8926 20.2126 27.8857 21.3391C29.894 22.4742 31 23.9647 31 25.5Z" fill="#0F0F0F" stroke="black"/>
</svg>
