<svg width="42" height="32" viewBox="0 0 42 32" fill="none" xmlns="http://www.w3.org/2000/svg">
<path d="M37.1153 32H12.0477H1.47046C0.658034 32 0 31.4027 0 30.6653V11.0612C0 10.3238 0.658034 9.72655 1.47046 9.72655H12.0477C12.1579 9.72655 12.2646 9.73822 12.3675 9.75908L21.2086 1.41978C22.044 0.516358 23.2636 0 24.564 0H25.2303C27.6483 0 29.6151 1.78515 29.6151 3.97988V9.72738H37.1153C39.809 9.72738 42 11.7161 42 14.161V27.5672C42 30.0105 39.809 32 37.1153 32ZM10.5772 12.3959H2.94092V29.3306H10.5772V12.3959ZM39.0591 14.1602C39.0591 13.1876 38.1869 12.3959 37.1153 12.3959H28.1437C27.3312 12.3959 26.6732 11.7987 26.6732 11.0612V3.97904C26.6732 3.25664 26.0253 2.66854 25.2294 2.66854H24.5631C24.1284 2.66854 23.7204 2.84456 23.4446 3.15153C23.4189 3.1799 23.3923 3.20742 23.3638 3.23412L13.5172 12.5219V29.3298H37.1153C38.1869 29.3298 39.0591 28.5382 39.0591 27.5655V14.1602Z" fill="#0EC717"/>
<path d="M10.5772 12.3959H2.94092V29.3306H10.5772V12.3959Z" fill="#099810"/>
<path d="M39.0591 14.1602C39.0591 13.1876 38.1869 12.3959 37.1153 12.3959H28.1437C27.3312 12.3959 26.6732 11.7987 26.6732 11.0612V3.97904C26.6732 3.25664 26.0253 2.66854 25.2294 2.66854H24.5631C24.1284 2.66854 23.7204 2.84456 23.4446 3.15153C23.4189 3.1799 23.3923 3.20742 23.3638 3.23412L13.5172 12.5219V29.3298H37.1153C38.1869 29.3298 39.0591 28.5382 39.0591 27.5655V14.1602Z" fill="#099810"/>
</svg>
