<svg width="42" height="32" viewBox="0 0 42 32" fill="none" xmlns="http://www.w3.org/2000/svg">
<path d="M4.88468 0L29.9523 0H40.5295C41.342 0 42 0.597274 42 1.33469L42 20.9388C42 21.6762 41.342 22.2735 40.5295 22.2735L29.9523 22.2735C29.8421 22.2735 29.7354 22.2618 29.6325 22.2409L20.7914 30.5802C19.956 31.4836 18.7364 32 17.436 32H16.7697C14.3517 32 12.3849 30.2149 12.3849 28.0201L12.3849 22.2726H4.88468C2.19098 22.2726 0 20.2839 0 17.839L0 4.43283C0 1.98952 2.19098 0 4.88468 0ZM31.4228 19.6041L39.0591 19.6041L39.0591 2.66938H31.4228L31.4228 19.6041ZM2.94092 17.8398C2.94092 18.8124 3.81309 19.6041 4.88468 19.6041H13.8563C14.6688 19.6041 15.3268 20.2013 15.3268 20.9388L15.3268 28.021C15.3268 28.7434 15.9747 29.3315 16.7706 29.3315H17.4369C17.8716 29.3315 18.2796 29.1554 18.5554 28.8485C18.5811 28.8201 18.6077 28.7926 18.6362 28.7659L28.4828 19.4781L28.4828 2.67021L4.88468 2.67021C3.81309 2.67021 2.94092 3.46185 2.94092 4.4345L2.94092 17.8398Z" fill="#ED3737"/>
<path d="M31.4228 19.6041L39.0591 19.6041L39.0591 2.66938H31.4228L31.4228 19.6041Z" fill="#A60F0F"/>
<path d="M2.94092 17.8398C2.94092 18.8124 3.81309 19.6041 4.88468 19.6041H13.8563C14.6688 19.6041 15.3268 20.2013 15.3268 20.9388L15.3268 28.021C15.3268 28.7434 15.9747 29.3315 16.7706 29.3315H17.4369C17.8716 29.3315 18.2796 29.1554 18.5554 28.8485C18.5811 28.8201 18.6077 28.7926 18.6362 28.7659L28.4828 19.4781L28.4828 2.67021L4.88468 2.67021C3.81309 2.67021 2.94092 3.46185 2.94092 4.4345L2.94092 17.8398Z" fill="#A60F0F"/>
</svg>
