<svg width="199" height="51" viewBox="0 0 199 51" fill="none" xmlns="http://www.w3.org/2000/svg">
<path d="M7.22496 38.561C7.0102 38.561 6.6574 38.5763 6.16653 38.607C5.67566 38.6377 5.16945 38.6683 4.64791 38.699C4.12637 38.7298 3.62016 38.7604 3.12929 38.7911C2.63842 38.8218 2.28562 38.8371 2.07086 38.8371L1.97882 38.653L2.11688 37.8246L2.34697 37.6405C2.71512 37.6405 3.14463 37.6252 3.6355 37.5945C4.12637 37.5331 4.50985 37.4104 4.78596 37.2263C5.03139 37.0422 5.26149 36.7507 5.47625 36.3518C5.691 35.9529 5.8444 35.3546 5.93643 34.5569C5.96712 34.0966 5.98245 33.4062 5.98245 32.4858C6.01313 31.5653 6.02847 30.1998 6.02847 28.3896V16.8835C6.02847 16.2699 6.02847 15.5795 6.02847 14.8124C6.02847 14.0147 5.99779 13.2323 5.93643 12.4651C5.87508 11.6367 5.72167 11.0384 5.47625 10.6702C5.26149 10.302 5.03139 10.0259 4.78596 9.84175C4.50985 9.68834 4.2184 9.58094 3.91161 9.51958C3.6355 9.42753 3.11395 9.38151 2.34697 9.38151L2.11688 9.19741L1.97882 8.36897L2.07086 8.18488C2.28562 8.18488 2.56173 8.20021 2.8992 8.2309C3.26735 8.26157 3.6355 8.29226 4.00365 8.32295C4.40248 8.35364 4.8013 8.38431 5.20013 8.415C5.59897 8.44568 5.96712 8.46102 6.30458 8.46102H7.96126C8.29872 8.46102 8.68222 8.46102 9.11173 8.46102C9.54123 8.46102 9.97075 8.46102 10.4003 8.46102C10.8604 8.43033 11.2746 8.415 11.6428 8.415C12.0109 8.415 12.3024 8.415 12.5171 8.415C15.8305 8.415 18.2081 9.05934 19.65 10.348C21.0919 11.606 21.8129 13.2783 21.8129 15.3647C21.8129 16.2852 21.6901 17.0983 21.4448 17.804C21.23 18.5096 20.9232 19.1387 20.5244 19.691C20.1255 20.2125 19.6807 20.6728 19.1898 21.0717C18.6989 21.4399 18.1774 21.7621 17.6252 22.0382C19.8648 22.4371 21.5828 23.2809 22.7793 24.5696C24.0065 25.8582 24.62 27.6379 24.62 29.9084C24.62 31.4425 24.3439 32.7619 23.7917 33.8665C23.2395 34.9403 22.4572 35.8302 21.4448 36.5359C20.4631 37.211 19.2819 37.7172 17.9013 38.0547C16.5207 38.3922 15.0021 38.561 13.3455 38.561H7.22496ZM9.2958 23.2809C9.2958 24.14 9.2958 25.1526 9.2958 26.3185C9.2958 27.4844 9.2958 28.635 9.2958 29.7703C9.32649 30.8749 9.34182 31.8721 9.34182 32.7619C9.3725 33.6517 9.40317 34.25 9.43386 34.5569C9.49521 35.3853 9.66395 35.8916 9.94006 36.0757C10.2162 36.2598 10.5843 36.3518 11.0445 36.3518H13.8517C14.588 36.3518 15.3856 36.2598 16.2446 36.0757C17.1343 35.8916 17.9626 35.5694 18.7296 35.1091C19.4967 34.6489 20.1409 34.0046 20.6624 33.1761C21.1839 32.3477 21.4448 31.2891 21.4448 30.0004C21.4448 28.8959 21.2454 27.9293 20.8465 27.1009C20.4476 26.2417 19.8954 25.5361 19.1898 24.9838C18.4843 24.4315 17.6559 24.0173 16.7048 23.7411C15.7844 23.4343 14.772 23.2809 13.6676 23.2809H9.2958ZM11.4587 21.578C12.4404 21.578 13.3762 21.5166 14.2658 21.3939C15.1555 21.2711 15.9532 20.9489 16.6588 20.4274C17.3338 19.9978 17.886 19.3841 18.3155 18.5864C18.7449 17.7579 18.9597 16.7914 18.9597 15.6869C18.9597 14.0607 18.4996 12.818 17.5792 11.9589C16.6588 11.0998 15.355 10.6702 13.6676 10.6702H9.5259C9.46454 11.56 9.41852 12.3117 9.38784 12.9254C9.38784 13.539 9.3725 14.076 9.34182 14.5362C9.31114 14.9965 9.2958 15.4107 9.2958 15.7789C9.2958 16.1471 9.2958 16.5 9.2958 16.8375V19.691C9.2958 20.3966 9.32649 20.8876 9.38784 21.1638C9.44919 21.4399 9.67929 21.578 10.0781 21.578H11.4587Z" fill="#F1F1F1"/>
<path d="M38.8921 14.2676L38.8423 14.2303C38.8423 14.0396 38.7842 13.8861 38.6682 13.77C38.5603 13.6456 38.4278 13.5502 38.2702 13.4839C38.1126 13.4176 37.9427 13.372 37.7602 13.3471C37.5861 13.3222 37.4328 13.3098 37.3001 13.3098C36.9186 13.3098 36.587 13.3803 36.3051 13.5212C36.0314 13.654 35.8034 13.8363 35.621 14.0686C35.4385 14.2925 35.3017 14.5537 35.2106 14.8522C35.1276 15.1424 35.0862 15.4409 35.0862 15.7478C35.0862 16.0629 35.1318 16.3657 35.223 16.6559C35.3225 16.9461 35.4717 17.2032 35.6707 17.4271C35.8697 17.651 36.1185 17.8292 36.417 17.962C36.7155 18.0947 37.0721 18.161 37.4866 18.161C37.7686 18.161 38.0795 18.1196 38.4194 18.0366C38.7677 17.9454 39.0662 17.8335 39.3149 17.7007L39.4393 17.8251L39.2527 18.1734C39.1616 18.2397 39.0413 18.3103 38.8921 18.3849C38.7511 18.4512 38.5894 18.5176 38.407 18.5839C38.2245 18.642 38.0255 18.6918 37.81 18.7332C37.6027 18.7746 37.3954 18.7954 37.1881 18.7954C36.7818 18.7954 36.3921 18.7249 36.019 18.5839C35.6542 18.4346 35.3308 18.2315 35.0489 17.9744C34.7752 17.7091 34.5555 17.3939 34.3897 17.029C34.2239 16.6559 34.1409 16.2454 34.1409 15.7976C34.1409 15.3414 34.2239 14.9268 34.3897 14.5537C34.5555 14.1805 34.7836 13.8612 35.0737 13.5959C35.3639 13.3305 35.6997 13.1232 36.0812 12.9739C36.4708 12.8247 36.8855 12.75 37.3249 12.75C37.7229 12.75 38.0961 12.7998 38.4443 12.8993C38.8009 12.9988 39.0703 13.0983 39.2527 13.1978L39.2901 13.3098L39.1532 14.2676H38.8921ZM40.7924 21.5071C40.9084 21.5071 41.0163 21.503 41.1158 21.4946C41.2236 21.4863 41.3272 21.4657 41.4267 21.4325C41.5262 21.4076 41.6216 21.3619 41.7128 21.2956C41.8123 21.2293 41.9201 21.138 42.0361 21.022C42.1937 20.8562 42.3305 20.6778 42.4466 20.4871C42.5626 20.3046 42.658 20.118 42.7326 19.9273L43.1306 18.9198L42.2724 16.6683C42.2392 16.5937 42.1813 16.4568 42.0983 16.2578C42.0237 16.0588 41.9366 15.839 41.8371 15.5986C41.7376 15.3498 41.634 15.0969 41.5262 14.8398C41.4267 14.5827 41.3396 14.3547 41.265 14.1556C41.182 13.9566 41.1074 13.799 41.0411 13.6829C40.9582 13.5502 40.8629 13.4466 40.7551 13.372C40.6556 13.2973 40.5188 13.2517 40.3446 13.2351L40.27 13.1729V12.9988L40.3198 12.949C40.4607 12.9656 40.6099 12.9823 40.7675 12.9988C40.9251 13.0153 41.0701 13.0237 41.2028 13.0237H41.6879C41.8206 13.0237 41.978 13.0153 42.1605 12.9988C42.3512 12.9823 42.5295 12.9656 42.6953 12.949L42.7451 12.9988V13.1481L42.6953 13.1978C42.5129 13.2144 42.3595 13.2641 42.2351 13.3471C42.1191 13.4217 42.061 13.5337 42.061 13.6829C42.061 13.7825 42.0983 13.9607 42.1729 14.2178C42.2559 14.4666 42.3471 14.7362 42.4466 15.0264C42.5461 15.3084 42.6415 15.5737 42.7326 15.8225C42.8238 16.0712 42.886 16.2329 42.9192 16.3076L43.5411 17.9247L44.1256 16.4942C44.1837 16.3532 44.2624 16.1624 44.3619 15.922C44.4614 15.6815 44.5609 15.4244 44.6604 15.1507C44.7599 14.8771 44.8429 14.6118 44.9092 14.3547C44.9838 14.0893 45.0211 13.8654 45.0211 13.6829C45.0211 13.5005 44.9548 13.3803 44.8221 13.3222C44.6894 13.2559 44.5402 13.2144 44.3744 13.1978L44.3246 13.1481V12.9988L44.3744 12.949C44.6978 12.9988 45.0004 13.0237 45.2823 13.0237H45.7923C45.9332 13.0237 46.0659 13.0153 46.1903 12.9988C46.323 12.9823 46.468 12.9656 46.6256 12.949L46.6753 12.9988V13.1729L46.6131 13.2351C46.4639 13.2517 46.3478 13.2932 46.2649 13.3595C46.1903 13.4258 46.1073 13.5337 46.0161 13.6829C45.9415 13.8157 45.8544 13.9815 45.7549 14.1805C45.6638 14.3795 45.5684 14.5951 45.4689 14.8273C45.3777 15.0596 45.2823 15.2959 45.1828 15.5364C45.0917 15.7768 45.0046 16.0007 44.9216 16.2081C44.847 16.4154 44.7807 16.5978 44.7226 16.7554C44.6729 16.9047 44.6356 17.0083 44.6107 17.0664L43.3918 20.1015C43.1763 20.6405 42.8819 21.0385 42.5088 21.2956C42.144 21.561 41.746 21.7475 41.3148 21.8554C41.2318 21.8719 41.1572 21.8803 41.0909 21.8803C41.0246 21.8886 40.95 21.8927 40.867 21.8927L40.7675 21.8678L40.7426 21.5693L40.7924 21.5071ZM52.2823 14.2676L52.2325 14.2303C52.2325 14.0396 52.1744 13.8861 52.0584 13.77C51.9506 13.6456 51.818 13.5502 51.6604 13.4839C51.5028 13.4176 51.3329 13.372 51.1505 13.3471C50.9763 13.3222 50.823 13.3098 50.6903 13.3098C50.3088 13.3098 49.9772 13.3803 49.6953 13.5212C49.4216 13.654 49.1937 13.8363 49.0112 14.0686C48.8287 14.2925 48.6919 14.5537 48.6008 14.8522C48.5178 15.1424 48.4764 15.4409 48.4764 15.7478C48.4764 16.0629 48.522 16.3657 48.6132 16.6559C48.7127 16.9461 48.862 17.2032 49.061 17.4271C49.26 17.651 49.5087 17.8292 49.8072 17.962C50.1057 18.0947 50.4623 18.161 50.8768 18.161C51.1588 18.161 51.4697 18.1196 51.8096 18.0366C52.1579 17.9454 52.4564 17.8335 52.7051 17.7007L52.8295 17.8251L52.643 18.1734C52.5518 18.2397 52.4315 18.3103 52.2823 18.3849C52.1413 18.4512 51.9797 18.5176 51.7972 18.5839C51.6147 18.642 51.4157 18.6918 51.2002 18.7332C50.9929 18.7746 50.7857 18.7954 50.5783 18.7954C50.172 18.7954 49.7823 18.7249 49.4092 18.5839C49.0444 18.4346 48.721 18.2315 48.4391 17.9744C48.1655 17.7091 47.9457 17.3939 47.7799 17.029C47.6141 16.6559 47.5311 16.2454 47.5311 15.7976C47.5311 15.3414 47.6141 14.9268 47.7799 14.5537C47.9457 14.1805 48.1738 13.8612 48.464 13.5959C48.7541 13.3305 49.0899 13.1232 49.4714 12.9739C49.8611 12.8247 50.2757 12.75 50.7151 12.75C51.1131 12.75 51.4863 12.7998 51.8345 12.8993C52.1911 12.9988 52.4605 13.0983 52.643 13.1978L52.6803 13.3098L52.5435 14.2676H52.2823ZM53.996 9.61538L54.0458 9.56563H54.2697C54.4106 9.56563 54.5889 9.56563 54.8045 9.56563C55.02 9.55733 55.2066 9.54075 55.3642 9.51587L55.8119 9.45367L55.8865 9.56563C55.87 9.5988 55.8575 9.661 55.8492 9.75221C55.8409 9.83514 55.8327 9.92636 55.8243 10.0259C55.816 10.1254 55.8078 10.2208 55.7995 10.312C55.7995 10.4032 55.7995 10.4737 55.7995 10.5234C55.7911 10.6561 55.7829 10.7805 55.7746 10.8966C55.7746 11.0127 55.7705 11.1495 55.7622 11.3071C55.7622 11.4647 55.7622 11.6554 55.7622 11.8793C55.7622 12.1032 55.7622 12.3893 55.7622 12.7376V15.4493C55.7622 15.7976 55.7622 16.0837 55.7622 16.3076C55.7705 16.5315 55.7746 16.7222 55.7746 16.8798C55.7829 17.0374 55.787 17.1742 55.787 17.2903C55.7954 17.4063 55.8036 17.539 55.8119 17.6883C55.8284 17.8625 55.8451 17.9952 55.8617 18.0864C55.8865 18.1693 55.9322 18.2397 55.9985 18.2978C56.0648 18.3559 56.156 18.3932 56.2721 18.4098C56.3965 18.4263 56.5208 18.4346 56.6452 18.4346L56.7074 18.4968L56.7323 18.6586L56.7074 18.7083C56.6493 18.7083 56.5623 18.7042 56.4462 18.6959C56.3302 18.6875 56.2058 18.6793 56.0731 18.671C55.9404 18.671 55.816 18.6669 55.7 18.6586C55.5839 18.6586 55.4969 18.6586 55.4388 18.6586H55.2647C55.2066 18.6586 55.1154 18.6586 54.991 18.6586C54.875 18.6669 54.7506 18.671 54.6179 18.671C54.4935 18.6793 54.3692 18.6875 54.2448 18.6959C54.1287 18.7042 54.0417 18.7083 53.9836 18.7083L53.9712 18.6586L53.9836 18.4844L54.0333 18.4346C54.1661 18.4346 54.2945 18.4305 54.4189 18.4222C54.5516 18.4057 54.6511 18.3641 54.7174 18.2978C54.7837 18.2397 54.8252 18.1651 54.8418 18.0739C54.8667 17.9827 54.8874 17.8541 54.904 17.6883C54.9123 17.5805 54.9164 17.4727 54.9164 17.3649C54.9247 17.257 54.9288 17.1327 54.9288 16.9917C54.9372 16.8425 54.9413 16.6724 54.9413 16.4817C54.9413 16.2827 54.9413 16.038 54.9413 15.7478V12.7625C54.9413 12.4225 54.9413 12.1364 54.9413 11.9042C54.9413 11.6637 54.9372 11.4564 54.9288 11.2822C54.9288 11.1081 54.9247 10.9547 54.9164 10.822C54.9164 10.6893 54.9123 10.5566 54.904 10.4239C54.8956 10.3327 54.8708 10.2539 54.8293 10.1876C54.7961 10.1212 54.7672 10.0715 54.7423 10.0383C54.6593 9.94709 54.5557 9.88904 54.4313 9.86416C54.307 9.83928 54.1785 9.82685 54.0458 9.82685L53.996 9.77709V9.61538ZM60.5323 18.7083C60.4744 18.7083 60.3873 18.7042 60.2711 18.6959C60.1551 18.6875 60.0307 18.6793 59.898 18.671C59.7654 18.671 59.641 18.6669 59.5249 18.6586C59.4088 18.6586 59.3218 18.6586 59.2637 18.6586H59.0896C59.0316 18.6586 58.9403 18.6586 58.8159 18.6586C58.6999 18.6669 58.5755 18.671 58.4428 18.671C58.3184 18.6793 58.1941 18.6875 58.0697 18.6959C57.9536 18.7042 57.8666 18.7083 57.8085 18.7083L57.7961 18.6586L57.8085 18.4844L57.8582 18.4346C57.991 18.4346 58.1194 18.4305 58.2438 18.4222C58.3765 18.4057 58.476 18.3641 58.5423 18.2978C58.6087 18.2397 58.6501 18.1651 58.6667 18.0739C58.6916 17.9827 58.7123 17.8541 58.7289 17.6883C58.7372 17.5556 58.7455 17.423 58.7537 17.2903C58.7621 17.1493 58.7662 16.9295 58.7662 16.631V15.101C58.7662 14.9268 58.7662 14.7817 58.7662 14.6656C58.7662 14.5412 58.7621 14.4334 58.7537 14.3422C58.7537 14.251 58.7496 14.1681 58.7413 14.0934C58.7413 14.0188 58.7372 13.9401 58.7289 13.8571C58.7123 13.7659 58.6875 13.687 58.6542 13.6207C58.6212 13.5461 58.5921 13.4964 58.5672 13.4715C58.4843 13.372 58.3806 13.3139 58.2562 13.2973C58.1319 13.2725 58.0034 13.26 57.8707 13.26L57.8209 13.2103V13.0361L57.8707 12.9988H58.0946C58.2356 12.9988 58.4138 12.9988 58.6294 12.9988C58.845 12.9905 59.0316 12.9739 59.1891 12.949L59.6244 12.8868L59.699 12.9988C59.6825 13.032 59.6659 13.09 59.6492 13.1729C59.641 13.2559 59.6327 13.3471 59.6244 13.4466C59.6244 13.5378 59.6203 13.6291 59.6119 13.7203C59.6119 13.8114 59.6119 13.882 59.6119 13.9317C59.6119 13.998 59.6078 14.0644 59.5995 14.1307C59.5995 14.1888 59.5995 14.2592 59.5995 14.3422C59.5995 14.4252 59.5954 14.5247 59.5871 14.6407C59.5871 14.7568 59.5871 14.9061 59.5871 15.0886V16.4817C59.5871 16.6642 59.5871 16.8135 59.5871 16.9295C59.5954 17.0456 59.5995 17.1451 59.5995 17.2281C59.6078 17.311 59.6119 17.3898 59.6119 17.4644C59.6203 17.5307 59.6286 17.6053 59.6368 17.6883C59.6535 17.8625 59.67 17.9952 59.6866 18.0864C59.7114 18.1693 59.7571 18.2397 59.8234 18.2978C59.8898 18.3559 59.981 18.3932 60.097 18.4098C60.2214 18.4263 60.3457 18.4346 60.4701 18.4346L60.5323 18.4968L60.5572 18.6586L60.5323 18.7083ZM58.4428 10.8095C58.4428 10.6437 58.4968 10.5027 58.6045 10.3866C58.7207 10.2622 58.8616 10.2 59.0274 10.2C59.1933 10.2 59.3342 10.2622 59.4502 10.3866C59.5746 10.5027 59.6368 10.6437 59.6368 10.8095C59.6368 10.9754 59.5746 11.1164 59.4502 11.2325C59.3342 11.3403 59.1933 11.3942 59.0274 11.3942C58.8616 11.3942 58.7207 11.3403 58.6045 11.2325C58.4968 11.1164 58.4428 10.9754 58.4428 10.8095ZM63.4224 14.0064C63.638 13.6497 63.9158 13.3512 64.2557 13.1107C64.5956 12.8703 65.0185 12.75 65.5243 12.75C65.7566 12.75 65.9886 12.7832 66.2208 12.8495C66.4531 12.9158 66.6645 13.0196 66.8552 13.1605C67.0542 13.3014 67.2158 13.4839 67.3402 13.7078C67.4729 13.9234 67.56 14.1805 67.6014 14.479C67.6263 14.6946 67.6387 14.9227 67.6387 15.1632C67.6471 15.4036 67.6512 15.6442 67.6512 15.8847C67.6512 16.1832 67.6512 16.4858 67.6512 16.7927C67.6595 17.0912 67.6636 17.3898 67.6636 17.6883C67.6801 17.879 67.7009 18.0201 67.7258 18.1112C67.7507 18.1942 67.788 18.2564 67.8377 18.2978C67.9123 18.3641 68.0118 18.4057 68.1362 18.4222C68.2689 18.4305 68.4015 18.4346 68.5342 18.4346L68.5715 18.4844L68.5964 18.6586L68.5715 18.7083C68.4306 18.6918 68.273 18.6793 68.0989 18.671C67.9248 18.6627 67.7548 18.6586 67.589 18.6586C67.2739 18.6586 66.9879 18.671 66.7308 18.6959L66.6437 18.5715C66.6769 18.4636 66.7018 18.3227 66.7183 18.1486C66.7349 17.9744 66.7473 17.821 66.7557 17.6883C66.7722 17.34 66.7846 17.0001 66.793 16.6683C66.8013 16.3283 66.8054 16.0464 66.8054 15.8225C66.8054 15.6318 66.7971 15.4244 66.7805 15.2005C66.7722 14.9766 66.7473 14.7817 66.7059 14.6159C66.623 14.2262 66.4531 13.9358 66.196 13.7451C65.9389 13.5544 65.6404 13.459 65.3005 13.459C65.0268 13.459 64.7698 13.5171 64.5293 13.6332C64.2971 13.7492 64.0981 13.8944 63.9323 14.0686C63.7666 14.2344 63.6339 14.4127 63.5343 14.6034C63.4432 14.7859 63.3975 14.9434 63.3975 15.0761V16.4817C63.3975 16.6642 63.3975 16.8135 63.3975 16.9295C63.3975 17.0456 63.3975 17.1451 63.3975 17.2281C63.4059 17.311 63.4141 17.3898 63.4224 17.4644C63.4307 17.5307 63.439 17.6053 63.4473 17.6883C63.4638 17.8625 63.4805 17.9952 63.497 18.0864C63.5219 18.1693 63.5676 18.2397 63.6338 18.2978C63.7001 18.3559 63.7914 18.3932 63.9075 18.4098C64.0318 18.4263 64.1562 18.4346 64.2806 18.4346L64.3428 18.4968L64.3677 18.6586L64.3428 18.7083C64.2847 18.7083 64.1976 18.7042 64.0816 18.6959C63.9656 18.6875 63.8412 18.6793 63.7085 18.671C63.5758 18.671 63.4514 18.6669 63.3354 18.6586C63.2193 18.6586 63.1322 18.6586 63.0742 18.6586H62.9C62.842 18.6586 62.7508 18.6586 62.6264 18.6586C62.5104 18.6669 62.386 18.671 62.2533 18.671C62.1289 18.6793 62.0045 18.6875 61.8802 18.6959C61.7641 18.7042 61.6771 18.7083 61.619 18.7083L61.6065 18.6586L61.619 18.4844L61.6687 18.4346C61.8014 18.4346 61.9299 18.4305 62.0543 18.4222C62.187 18.4057 62.2865 18.3641 62.3528 18.2978C62.4191 18.2397 62.4606 18.1651 62.4772 18.0739C62.502 17.9827 62.5228 17.8541 62.5394 17.6883C62.5477 17.5556 62.5559 17.423 62.5642 17.2903C62.5726 17.1493 62.5767 16.9295 62.5767 16.631V15.101C62.5767 14.9268 62.5767 14.7817 62.5767 14.6656C62.5767 14.5412 62.5726 14.4334 62.5642 14.3422C62.5642 14.251 62.5601 14.1681 62.5518 14.0934C62.5518 14.0188 62.5477 13.9401 62.5394 13.8571C62.5228 13.7659 62.4979 13.687 62.4647 13.6207C62.4315 13.5461 62.4025 13.4964 62.3777 13.4715C62.2947 13.372 62.1911 13.3139 62.0667 13.2973C61.9423 13.2725 61.8139 13.26 61.6812 13.26L61.6314 13.2103V13.0361L61.6812 12.9988H61.905C62.046 12.9988 62.2243 12.9988 62.4398 12.9988C62.6554 12.9905 62.842 12.9739 62.9995 12.949L63.4348 12.8868L63.5095 12.9988C63.4681 13.1066 63.439 13.2559 63.4224 13.4466C63.4059 13.6291 63.3934 13.8073 63.3851 13.9815L63.4224 14.0064ZM71.0388 16.9668C70.591 16.801 70.2676 16.5398 70.0686 16.1832C69.8696 15.8266 69.7701 15.4327 69.7701 15.0015C69.7701 14.6946 69.8241 14.4044 69.9318 14.1307C70.0397 13.8571 70.193 13.6207 70.392 13.4217C70.5993 13.2144 70.844 13.0527 71.1258 12.9366C71.4161 12.8205 71.7436 12.7625 72.1084 12.7625C72.3241 12.7625 72.5355 12.7832 72.7427 12.8247C72.9584 12.8661 73.1449 12.9242 73.3024 12.9988C73.6506 12.9905 73.974 12.9698 74.2725 12.9366C74.5793 12.9034 74.8654 12.8495 75.1307 12.7749L75.1929 12.8247L75.1058 13.5088L75.0436 13.571L73.9118 13.5212L73.8994 13.5586C74.1151 13.7327 74.2725 13.9607 74.372 14.2427C74.4715 14.5247 74.5213 14.7983 74.5213 15.0637C74.5213 15.3373 74.4674 15.5986 74.3596 15.8473C74.2601 16.0961 74.1108 16.3159 73.9118 16.5066C73.7128 16.6891 73.4641 16.8384 73.1656 16.9544C72.8671 17.0623 72.5231 17.1161 72.1333 17.1161C72.067 17.1161 71.984 17.1161 71.8845 17.1161C71.785 17.1078 71.7022 17.1037 71.6358 17.1037C71.4948 17.1618 71.387 17.2405 71.3124 17.34C71.2461 17.4395 71.2129 17.5225 71.2129 17.5888C71.2129 17.6718 71.2669 17.7464 71.3746 17.8127C71.4907 17.8708 71.6731 17.9122 71.9218 17.9371L73.1283 18.0615C73.4019 18.0947 73.6549 18.1527 73.887 18.2356C74.1275 18.3186 74.3347 18.4305 74.5088 18.5715C74.6913 18.7042 74.8322 18.8659 74.9317 19.0566C75.0312 19.2556 75.0809 19.4836 75.0809 19.7407C75.0809 19.9812 75.0271 20.2218 74.9193 20.4622C74.8116 20.711 74.6499 20.9308 74.4342 21.1215C74.2187 21.304 73.9202 21.4532 73.5387 21.5693C73.1574 21.6853 72.7178 21.7434 72.2203 21.7434C71.7726 21.7434 71.3829 21.6937 71.0512 21.5942C70.7278 21.503 70.4542 21.3744 70.2303 21.2086C70.0148 21.0509 69.8531 20.8686 69.7453 20.6612C69.6376 20.4622 69.5836 20.2549 69.5836 20.0393C69.5836 19.691 69.6955 19.38 69.9194 19.1064C70.1516 18.841 70.446 18.6544 70.8025 18.5466L70.8149 18.5093C70.6326 18.4347 70.4874 18.3435 70.3796 18.2356C70.2719 18.1196 70.2179 17.9785 70.2179 17.8127C70.2179 17.5971 70.305 17.423 70.4791 17.2903C70.6532 17.1575 70.8398 17.0664 71.0388 17.0166V16.9668ZM72.1581 16.5937C72.3903 16.5937 72.5934 16.5523 72.7676 16.4693C72.95 16.3863 73.1034 16.2744 73.2278 16.1334C73.3521 15.9925 73.4475 15.8308 73.5138 15.6483C73.5802 15.4576 73.6133 15.2627 73.6133 15.0637C73.6133 14.8563 73.5802 14.6491 73.5138 14.4417C73.4475 14.2344 73.348 14.0478 73.2153 13.882C73.091 13.7162 72.9335 13.5793 72.7427 13.4715C72.552 13.3636 72.3323 13.3098 72.0835 13.3098C71.8431 13.3098 71.6317 13.3595 71.4492 13.459C71.2751 13.5586 71.1258 13.687 71.0014 13.8447C70.8854 14.0023 70.7983 14.1805 70.7403 14.3795C70.6823 14.5702 70.6532 14.761 70.6532 14.9517C70.6532 15.1507 70.6823 15.3498 70.7403 15.5488C70.8067 15.7395 70.902 15.9136 71.0263 16.0712C71.159 16.2288 71.3166 16.3573 71.4989 16.4568C71.6897 16.548 71.9094 16.5937 72.1581 16.5937ZM71.7601 18.7207C71.5281 18.7291 71.3248 18.7705 71.1507 18.8451C70.9766 18.9198 70.8273 19.011 70.7029 19.1188C70.5869 19.2349 70.4998 19.3592 70.4418 19.492C70.3838 19.6329 70.3547 19.7697 70.3547 19.9025C70.3547 20.2175 70.5288 20.4747 70.8771 20.6737C71.2253 20.8727 71.6979 20.9722 72.2949 20.9722C72.5686 20.9722 72.8216 20.9473 73.0536 20.8976C73.2858 20.8562 73.4848 20.7856 73.6506 20.6861C73.8248 20.5949 73.9616 20.4788 74.0611 20.3378C74.1606 20.2051 74.2103 20.0476 74.2103 19.8651C74.2103 19.6661 74.1606 19.5044 74.0611 19.38C73.9699 19.2556 73.8455 19.152 73.688 19.069C73.5387 18.9944 73.3646 18.9363 73.1656 18.8949C72.9749 18.8617 72.7842 18.8327 72.5934 18.8078L71.7601 18.7207ZM82.3208 18.7083C82.2627 18.7083 82.1757 18.7042 82.0596 18.6959C81.9435 18.6875 81.8191 18.6793 81.6865 18.671C81.5538 18.671 81.4294 18.6669 81.3134 18.6586C81.1972 18.6586 81.1102 18.6586 81.0522 18.6586H80.8781C80.82 18.6586 80.7288 18.6586 80.6044 18.6586C80.4883 18.6669 80.3639 18.671 80.2313 18.671C80.1069 18.6793 79.9826 18.6875 79.8582 18.6959C79.742 18.7042 79.655 18.7083 79.597 18.7083L79.5846 18.6586L79.597 18.4844L79.6468 18.4346C79.7793 18.4346 79.9079 18.4305 80.0323 18.4222C80.1649 18.4057 80.2644 18.3641 80.3308 18.2978C80.3971 18.2397 80.4385 18.1651 80.4552 18.0739C80.4801 17.9827 80.5007 17.8541 80.5174 17.6883C80.5256 17.5556 80.5339 17.423 80.5423 17.2903C80.5505 17.1493 80.5547 16.9295 80.5547 16.631V15.101C80.5547 14.9268 80.5547 14.7817 80.5547 14.6656C80.5547 14.5412 80.5505 14.4334 80.5423 14.3422C80.5423 14.251 80.538 14.1681 80.5298 14.0934C80.5298 14.0188 80.5256 13.9401 80.5174 13.8571C80.5007 13.7659 80.4758 13.687 80.4428 13.6207C80.4095 13.5461 80.3806 13.4964 80.3557 13.4715C80.2727 13.372 80.1691 13.3139 80.0448 13.2973C79.9204 13.2725 79.7918 13.26 79.6592 13.26L79.6094 13.2103V13.0361L79.6592 12.9988H79.8831C80.024 12.9988 80.2022 12.9988 80.4179 12.9988C80.6334 12.9905 80.82 12.9739 80.9776 12.949L81.4129 12.8868L81.4875 12.9988C81.4708 13.032 81.4543 13.09 81.4378 13.1729C81.4294 13.2559 81.4211 13.3471 81.4129 13.4466C81.4129 13.5378 81.4087 13.6291 81.4004 13.7203C81.4004 13.8114 81.4004 13.882 81.4004 13.9317C81.4004 13.998 81.3962 14.0644 81.388 14.1307C81.388 14.1888 81.388 14.2592 81.388 14.3422C81.388 14.4252 81.3838 14.5247 81.3756 14.6407C81.3756 14.7568 81.3756 14.9061 81.3756 15.0886V16.4817C81.3756 16.6642 81.3756 16.8135 81.3756 16.9295C81.3838 17.0456 81.388 17.1451 81.388 17.2281C81.3962 17.311 81.4004 17.3898 81.4004 17.4644C81.4087 17.5307 81.417 17.6053 81.4253 17.6883C81.4419 17.8625 81.4584 17.9952 81.4751 18.0864C81.4999 18.1693 81.5455 18.2397 81.6119 18.2978C81.6782 18.3559 81.7693 18.3932 81.8855 18.4098C82.0099 18.4263 82.1343 18.4346 82.2586 18.4346L82.3208 18.4968L82.3457 18.6586L82.3208 18.7083ZM80.2313 10.8095C80.2313 10.6437 80.2852 10.5027 80.393 10.3866C80.5091 10.2622 80.65 10.2 80.8159 10.2C80.9817 10.2 81.1226 10.2622 81.2388 10.3866C81.3631 10.5027 81.4253 10.6437 81.4253 10.8095C81.4253 10.9754 81.3631 11.1164 81.2388 11.2325C81.1226 11.3403 80.9817 11.3942 80.8159 11.3942C80.65 11.3942 80.5091 11.3403 80.393 11.2325C80.2852 11.1164 80.2313 10.9754 80.2313 10.8095ZM85.2109 14.0064C85.4265 13.6497 85.7042 13.3512 86.0442 13.1107C86.3841 12.8703 86.807 12.75 87.3129 12.75C87.5449 12.75 87.7771 12.7832 88.0094 12.8495C88.2414 12.9158 88.4529 13.0196 88.6437 13.1605C88.8427 13.3014 89.0044 13.4839 89.1287 13.7078C89.2613 13.9234 89.3484 14.1805 89.3899 14.479C89.4148 14.6946 89.4272 14.9227 89.4272 15.1632C89.4354 15.4036 89.4397 15.6442 89.4397 15.8847C89.4397 16.1832 89.4397 16.4858 89.4397 16.7927C89.4479 17.0912 89.4521 17.3898 89.4521 17.6883C89.4687 17.879 89.4894 18.0201 89.5143 18.1112C89.5392 18.1942 89.5765 18.2564 89.6262 18.2978C89.7009 18.3641 89.8004 18.4057 89.9247 18.4222C90.0573 18.4305 90.19 18.4346 90.3227 18.4346L90.36 18.4844L90.3849 18.6586L90.36 18.7083C90.219 18.6918 90.0615 18.6793 89.8874 18.671C89.7133 18.6627 89.5433 18.6586 89.3775 18.6586C89.0623 18.6586 88.7763 18.671 88.5193 18.6959L88.4322 18.5715C88.4653 18.4636 88.4902 18.3227 88.5069 18.1486C88.5234 17.9744 88.5358 17.821 88.5442 17.6883C88.5607 17.34 88.5731 17.0001 88.5815 16.6683C88.5897 16.3283 88.5939 16.0464 88.5939 15.8225C88.5939 15.6318 88.5856 15.4244 88.569 15.2005C88.5607 14.9766 88.5358 14.7817 88.4944 14.6159C88.4115 14.2262 88.2414 13.9358 87.9845 13.7451C87.7274 13.5544 87.4289 13.459 87.089 13.459C86.8154 13.459 86.5583 13.5171 86.3179 13.6332C86.0856 13.7492 85.8867 13.8944 85.7209 14.0686C85.5549 14.2344 85.4224 14.4127 85.3229 14.6034C85.2316 14.7859 85.186 14.9434 85.186 15.0761V16.4817C85.186 16.6642 85.186 16.8135 85.186 16.9295C85.186 17.0456 85.186 17.1451 85.186 17.2281C85.1943 17.311 85.2026 17.3898 85.2109 17.4644C85.2191 17.5307 85.2275 17.6053 85.2358 17.6883C85.2523 17.8625 85.2689 17.9952 85.2855 18.0864C85.3104 18.1693 85.3559 18.2397 85.4224 18.2978C85.4886 18.3559 85.5798 18.3932 85.696 18.4098C85.8204 18.4263 85.9447 18.4346 86.0691 18.4346L86.1313 18.4968L86.1562 18.6586L86.1313 18.7083C86.0732 18.7083 85.9861 18.7042 85.8701 18.6959C85.7539 18.6875 85.6296 18.6793 85.497 18.671C85.3643 18.671 85.2399 18.6669 85.1239 18.6586C85.0077 18.6586 84.9206 18.6586 84.8627 18.6586H84.6885C84.6305 18.6586 84.5393 18.6586 84.4149 18.6586C84.2988 18.6669 84.1744 18.671 84.0418 18.671C83.9174 18.6793 83.793 18.6875 83.6687 18.6959C83.5525 18.7042 83.4654 18.7083 83.4075 18.7083L83.395 18.6586L83.4075 18.4844L83.4572 18.4346C83.5898 18.4346 83.7184 18.4305 83.8428 18.4222C83.9754 18.4057 84.0749 18.3641 84.1413 18.2978C84.2076 18.2397 84.249 18.1651 84.2657 18.0739C84.2905 17.9827 84.3112 17.8541 84.3279 17.6883C84.3361 17.5556 84.3444 17.423 84.3527 17.2903C84.3609 17.1493 84.3652 16.9295 84.3652 16.631V15.101C84.3652 14.9268 84.3652 14.7817 84.3652 14.6656C84.3652 14.5412 84.3609 14.4334 84.3527 14.3422C84.3527 14.251 84.3485 14.1681 84.3403 14.0934C84.3403 14.0188 84.3361 13.9401 84.3279 13.8571C84.3112 13.7659 84.2863 13.687 84.2532 13.6207C84.22 13.5461 84.191 13.4964 84.1662 13.4715C84.0832 13.372 83.9796 13.3139 83.8552 13.2973C83.7309 13.2725 83.6022 13.26 83.4697 13.26L83.4199 13.2103V13.0361L83.4697 12.9988H83.6935C83.8345 12.9988 84.0127 12.9988 84.2284 12.9988C84.4439 12.9905 84.6305 12.9739 84.788 12.949L85.2234 12.8868L85.298 12.9988C85.2564 13.1066 85.2275 13.2559 85.2109 13.4466C85.1943 13.6291 85.1818 13.8073 85.1736 13.9815L85.2109 14.0064ZM97.9917 13.5212H96.3748C96.3748 14.0602 96.3707 14.5578 96.3624 15.0139C96.3624 15.4701 96.3624 15.8722 96.3624 16.2205C96.3624 16.5605 96.3583 16.8341 96.3499 17.0415C96.3499 17.2488 96.3499 17.3773 96.3499 17.4271C96.3499 17.7505 96.4121 17.9661 96.5365 18.0739C96.6609 18.1818 96.806 18.2356 96.9718 18.2356C97.1129 18.2356 97.2745 18.2107 97.4569 18.161C97.6477 18.1029 97.801 18.0407 97.9171 17.9744L98.029 18.0615L97.9171 18.4098C97.7264 18.5425 97.5109 18.6378 97.2703 18.6959C97.0382 18.7622 96.8309 18.7954 96.6484 18.7954C96.2256 18.7954 95.9271 18.6793 95.7529 18.4471C95.5788 18.2149 95.4918 17.9163 95.4918 17.5515C95.4918 17.4768 95.496 17.3235 95.5042 17.0912C95.5125 16.859 95.5209 16.5688 95.5291 16.2205C95.5374 15.8722 95.5457 15.4701 95.5539 15.0139C95.5623 14.5578 95.5664 14.0602 95.5664 13.5212H94.6709L94.6211 13.459V13.2227L94.6709 13.1729L95.5664 12.9988C95.5664 12.7086 95.5582 12.4142 95.5415 12.1156C95.5333 11.8088 95.5209 11.5103 95.5042 11.22L95.5913 11.1454L95.7654 11.1329C95.8318 11.1246 95.9395 11.1081 96.0888 11.0832C96.238 11.0583 96.3417 11.0293 96.3997 10.9961L96.5116 11.0459C96.4868 11.162 96.4661 11.2988 96.4494 11.4564C96.4329 11.6056 96.4164 11.7673 96.3997 11.9415C96.3915 12.1156 96.3831 12.2939 96.3748 12.4764C96.3748 12.6588 96.3748 12.833 96.3748 12.9988L97.9917 12.9242L98.0539 12.9739V13.459L97.9917 13.5212ZM104.026 18.5715C104.059 18.4636 104.084 18.3227 104.101 18.1486C104.117 17.9744 104.13 17.821 104.138 17.6883C104.155 17.34 104.167 17.0001 104.175 16.6683C104.184 16.3283 104.188 16.0464 104.188 15.8225C104.188 15.6318 104.179 15.4244 104.163 15.2005C104.155 14.9766 104.13 14.7817 104.088 14.6159C104.005 14.2262 103.835 13.9358 103.578 13.7451C103.321 13.5544 103.023 13.459 102.683 13.459C102.409 13.459 102.152 13.5212 101.912 13.6456C101.68 13.7617 101.481 13.9068 101.315 14.081C101.149 14.2468 101.016 14.4252 100.917 14.6159C100.825 14.7983 100.78 14.9517 100.78 15.0761C100.78 15.5239 100.78 15.8846 100.78 16.1583C100.78 16.4236 100.78 16.6475 100.78 16.83C100.788 17.0125 100.792 17.1659 100.792 17.2903C100.801 17.4063 100.813 17.539 100.83 17.6883C100.846 17.8625 100.863 17.9952 100.879 18.0864C100.904 18.1693 100.95 18.2397 101.016 18.2978C101.083 18.3559 101.174 18.3932 101.29 18.4098C101.414 18.4263 101.539 18.4346 101.663 18.4346L101.725 18.4968L101.75 18.6586L101.725 18.7083C101.667 18.7083 101.58 18.7042 101.464 18.6959C101.348 18.6875 101.223 18.6793 101.091 18.671C100.958 18.671 100.834 18.6669 100.718 18.6586C100.602 18.6586 100.515 18.6586 100.457 18.6586H100.282C100.224 18.6586 100.133 18.6586 100.009 18.6586C99.8926 18.6669 99.7683 18.671 99.6357 18.671C99.5113 18.6793 99.3869 18.6875 99.2626 18.6959C99.1464 18.7042 99.0593 18.7083 99.0014 18.7083L98.9889 18.6586L99.0014 18.4844L99.0511 18.4346C99.1837 18.4346 99.3123 18.4305 99.4367 18.4222C99.5693 18.4057 99.6688 18.3641 99.7352 18.2978C99.8015 18.2397 99.8429 18.1651 99.8596 18.0739C99.8844 17.9827 99.9051 17.8541 99.9218 17.6883C99.93 17.5805 99.9342 17.4727 99.9342 17.3649C99.9424 17.257 99.9466 17.1327 99.9466 16.9917C99.9548 16.8425 99.9591 16.6724 99.9591 16.4817C99.9591 16.2827 99.9591 16.038 99.9591 15.7478V12.7625C99.9591 12.4225 99.9591 12.1364 99.9591 11.9042C99.9591 11.6637 99.9548 11.4564 99.9466 11.2822C99.9466 11.1081 99.9424 10.9547 99.9342 10.822C99.9342 10.6893 99.93 10.5566 99.9218 10.4239C99.9134 10.3327 99.8885 10.2539 99.8471 10.1876C99.8139 10.1212 99.7849 10.0715 99.7601 10.0383C99.6771 9.94709 99.5735 9.88904 99.4491 9.86416C99.3247 9.83928 99.1961 9.82685 99.0636 9.82685L99.0138 9.77709V9.61538L99.0636 9.56563H99.2874C99.4284 9.56563 99.6066 9.56563 99.8223 9.56563C100.038 9.55733 100.224 9.54075 100.382 9.51587L100.817 9.45367L100.892 9.56563C100.875 9.5988 100.863 9.661 100.855 9.75221C100.846 9.83514 100.838 9.92636 100.83 10.0259C100.821 10.1254 100.817 10.2208 100.817 10.312C100.817 10.4032 100.817 10.4737 100.817 10.5234C100.817 10.7888 100.809 11.1081 100.792 11.4812C100.784 11.8461 100.78 12.2649 100.78 12.7376C100.78 13.0859 100.776 13.3595 100.767 13.5586C100.767 13.7576 100.759 13.9152 100.743 14.0312L100.78 14.0561C100.987 13.6913 101.265 13.3844 101.613 13.1356C101.961 12.8785 102.393 12.75 102.907 12.75C103.139 12.75 103.371 12.7832 103.603 12.8495C103.844 12.9158 104.059 13.0196 104.25 13.1605C104.441 13.3014 104.602 13.4798 104.735 13.6954C104.868 13.911 104.951 14.1681 104.984 14.4666C105.009 14.6822 105.021 14.9309 105.021 15.2129C105.029 15.4866 105.034 15.7105 105.034 15.8847V17.6386C105.034 17.8292 105.05 17.9785 105.083 18.0864C105.125 18.1859 105.17 18.2564 105.22 18.2978C105.295 18.3641 105.394 18.4057 105.519 18.4222C105.651 18.4305 105.784 18.4346 105.917 18.4346L105.954 18.4844L105.979 18.6586L105.954 18.7083C105.813 18.6918 105.655 18.6793 105.481 18.671C105.307 18.6627 105.137 18.6586 104.971 18.6586C104.656 18.6586 104.37 18.671 104.113 18.6959L104.026 18.5715ZM112.505 15.3125L112.306 15.3995C111.858 15.3995 111.398 15.4036 110.925 15.412C110.452 15.4203 109.988 15.4244 109.532 15.4244H108.064C108.056 15.4825 108.052 15.5405 108.052 15.5986C108.052 15.6483 108.052 15.6981 108.052 15.7478C108.052 16.0629 108.097 16.3657 108.189 16.6559C108.28 16.9379 108.421 17.1866 108.612 17.4022C108.811 17.6178 109.063 17.7919 109.37 17.9247C109.677 18.049 110.05 18.1112 110.49 18.1112C110.747 18.1112 111.02 18.0864 111.311 18.0366C111.609 17.9785 111.883 17.879 112.131 17.7381L112.256 17.8127V18.0366L112.131 18.1734C111.932 18.331 111.65 18.4761 111.286 18.6088C110.921 18.7332 110.515 18.7954 110.067 18.7954C109.627 18.7954 109.225 18.7249 108.86 18.5839C108.504 18.4346 108.193 18.2273 107.928 17.962C107.67 17.6966 107.467 17.3814 107.318 17.0166C107.177 16.6518 107.107 16.2454 107.107 15.7976C107.107 15.3414 107.181 14.9268 107.331 14.5537C107.48 14.1805 107.683 13.8612 107.94 13.5959C108.205 13.3305 108.512 13.1232 108.86 12.9739C109.217 12.8247 109.598 12.75 110.005 12.75C110.22 12.75 110.461 12.779 110.726 12.8371C111 12.8952 111.261 13.0071 111.51 13.1729C111.758 13.3305 111.982 13.5586 112.181 13.8571C112.38 14.1473 112.517 14.5329 112.592 15.0139L112.505 15.3125ZM110.017 13.3098C109.752 13.3098 109.511 13.3554 109.296 13.4466C109.088 13.5296 108.902 13.6456 108.736 13.7949C108.578 13.9358 108.446 14.1059 108.338 14.3049C108.238 14.4956 108.168 14.6988 108.127 14.9144H108.612C109.059 14.9144 109.495 14.9103 109.918 14.902C110.34 14.8854 110.784 14.8647 111.248 14.8398C111.356 14.8314 111.427 14.8025 111.46 14.7527C111.501 14.7029 111.522 14.6449 111.522 14.5786C111.522 14.5288 111.518 14.4831 111.51 14.4417C111.501 14.4003 111.489 14.3588 111.472 14.3173C111.381 14.0023 111.211 13.7576 110.962 13.5834C110.714 13.401 110.398 13.3098 110.017 13.3098ZM117.226 13.0361L117.276 12.9988H117.5C117.641 12.9988 117.819 12.9988 118.034 12.9988C118.25 12.9905 118.437 12.9739 118.594 12.949L119.029 12.8868L119.104 12.9988C119.088 13.0486 119.071 13.1149 119.054 13.1978C119.046 13.2725 119.034 13.3595 119.017 13.459C119.009 13.5502 119 13.6415 118.992 13.7327C118.984 13.8239 118.98 13.9027 118.98 13.969L119.017 13.9939C119.108 13.8281 119.212 13.6705 119.328 13.5212C119.452 13.3636 119.593 13.231 119.751 13.1232C119.908 13.0071 120.087 12.9158 120.286 12.8495C120.485 12.7832 120.713 12.75 120.97 12.75C121.185 12.75 121.397 12.779 121.604 12.8371C121.811 12.8868 122.002 12.9698 122.176 13.0859C122.359 13.1937 122.516 13.3388 122.649 13.5212C122.79 13.6954 122.898 13.9068 122.972 14.1556C123.072 13.9731 123.179 13.799 123.296 13.6332C123.42 13.459 123.561 13.3098 123.718 13.1854C123.884 13.0527 124.071 12.949 124.278 12.8744C124.493 12.7914 124.738 12.75 125.012 12.75C125.252 12.75 125.484 12.7832 125.708 12.8495C125.941 12.9158 126.147 13.0196 126.33 13.1605C126.52 13.3014 126.682 13.4798 126.815 13.6954C126.956 13.911 127.052 14.1722 127.101 14.479C127.142 14.6946 127.163 14.9227 127.163 15.1632C127.172 15.4036 127.176 15.6442 127.176 15.8847V17.6883C127.176 17.879 127.192 18.0201 127.226 18.1112C127.259 18.1942 127.304 18.2564 127.362 18.2978C127.428 18.3641 127.524 18.4057 127.649 18.4222C127.782 18.4305 127.913 18.4346 128.047 18.4346L128.096 18.4844L128.121 18.6586L128.096 18.7083C127.947 18.6918 127.785 18.6793 127.611 18.671C127.446 18.6627 127.275 18.6586 127.101 18.6586C126.794 18.6586 126.513 18.671 126.256 18.6959L126.168 18.5715C126.202 18.4636 126.227 18.3227 126.243 18.1486C126.259 17.9744 126.272 17.821 126.28 17.6883C126.289 17.5639 126.293 17.4105 126.293 17.2281C126.302 17.0456 126.305 16.8632 126.305 16.6807C126.314 16.4901 126.318 16.3117 126.318 16.1459C126.318 15.9801 126.318 15.8514 126.318 15.7603C126.318 15.5944 126.309 15.3871 126.293 15.1383C126.284 14.8812 126.259 14.6656 126.218 14.4915C126.135 14.1515 125.966 13.8944 125.708 13.7203C125.46 13.5461 125.177 13.459 124.863 13.459C124.63 13.459 124.415 13.5047 124.216 13.5959C124.025 13.6788 123.855 13.7866 123.706 13.9193C123.557 14.0437 123.428 14.1846 123.32 14.3422C123.221 14.4998 123.146 14.6491 123.097 14.79C123.113 14.9725 123.121 15.1549 123.121 15.3373C123.13 15.5198 123.134 15.7022 123.134 15.8847V17.6883C123.134 17.8625 123.15 17.9952 123.184 18.0864C123.217 18.1693 123.267 18.2397 123.333 18.2978C123.399 18.3559 123.49 18.3932 123.606 18.4098C123.731 18.4263 123.855 18.4346 123.98 18.4346L124.042 18.4968L124.067 18.6586L124.042 18.7083C123.984 18.7083 123.897 18.7042 123.781 18.6959C123.665 18.6875 123.54 18.6793 123.407 18.671C123.275 18.671 123.15 18.6669 123.034 18.6586C122.918 18.6586 122.831 18.6586 122.773 18.6586H122.599C122.541 18.6586 122.45 18.6586 122.325 18.6586C122.209 18.6669 122.085 18.671 121.952 18.671C121.828 18.6793 121.704 18.6875 121.579 18.6959C121.463 18.7042 121.376 18.7083 121.318 18.7083L121.293 18.6586L121.318 18.4844L121.368 18.4346C121.5 18.4346 121.629 18.4305 121.753 18.4222C121.886 18.4057 121.985 18.3641 122.052 18.2978C122.118 18.2397 122.16 18.1651 122.176 18.0739C122.193 17.9827 122.209 17.8541 122.226 17.6883C122.234 17.5639 122.238 17.4105 122.238 17.2281C122.247 17.0456 122.251 16.8632 122.251 16.6807C122.259 16.4901 122.263 16.3117 122.263 16.1459C122.272 15.9801 122.276 15.8514 122.276 15.7603C122.276 15.6773 122.276 15.582 122.276 15.4742C122.276 15.3581 122.272 15.2419 122.263 15.1259C122.255 15.0098 122.242 14.8979 122.226 14.79C122.218 14.6822 122.201 14.5827 122.176 14.4915C122.085 14.1515 121.915 13.8944 121.666 13.7203C121.417 13.5461 121.136 13.459 120.82 13.459C120.547 13.459 120.298 13.5212 120.074 13.6456C119.85 13.7617 119.655 13.9068 119.49 14.081C119.332 14.2468 119.208 14.4252 119.117 14.6159C119.034 14.7983 118.992 14.9558 118.992 15.0886V16.4817C118.992 16.6642 118.992 16.8135 118.992 16.9295C119 17.0456 119.005 17.1451 119.005 17.2281C119.013 17.311 119.017 17.3898 119.017 17.4644C119.025 17.5307 119.034 17.6053 119.042 17.6883C119.058 17.8625 119.075 17.9952 119.092 18.0864C119.117 18.1693 119.162 18.2397 119.228 18.2978C119.295 18.3559 119.386 18.3932 119.502 18.4098C119.626 18.4263 119.751 18.4346 119.875 18.4346L119.937 18.4968L119.962 18.6586L119.937 18.7083C119.879 18.7083 119.792 18.7042 119.676 18.6959C119.56 18.6875 119.436 18.6793 119.303 18.671C119.17 18.671 119.046 18.6669 118.93 18.6586C118.814 18.6586 118.727 18.6586 118.669 18.6586H118.495C118.437 18.6586 118.345 18.6586 118.221 18.6586C118.105 18.6669 117.981 18.671 117.848 18.671C117.724 18.6793 117.599 18.6875 117.475 18.6959C117.359 18.7042 117.272 18.7083 117.214 18.7083L117.201 18.6586L117.214 18.4844L117.263 18.4346C117.396 18.4346 117.525 18.4305 117.649 18.4222C117.782 18.4057 117.881 18.3641 117.947 18.2978C118.014 18.2397 118.055 18.1651 118.072 18.0739C118.097 17.9827 118.117 17.8541 118.134 17.6883C118.142 17.5556 118.151 17.423 118.159 17.2903C118.167 17.1493 118.171 16.9295 118.171 16.631V15.101C118.171 14.9268 118.171 14.7817 118.171 14.6656C118.171 14.5412 118.167 14.4334 118.159 14.3422C118.159 14.251 118.155 14.1681 118.146 14.0934C118.146 14.0188 118.142 13.9401 118.134 13.8571C118.117 13.7659 118.093 13.687 118.059 13.6207C118.026 13.5461 117.997 13.4964 117.972 13.4715C117.889 13.372 117.786 13.3139 117.661 13.2973C117.537 13.2725 117.409 13.26 117.276 13.26L117.226 13.2103V13.0361ZM132.285 12.75C132.775 12.75 133.211 12.8371 133.591 13.0112C133.973 13.177 134.293 13.4052 134.549 13.6954C134.815 13.9774 135.014 14.3049 135.146 14.6781C135.288 15.0512 135.357 15.4368 135.357 15.8349C135.357 16.2164 135.295 16.5853 135.171 16.942C135.046 17.2986 134.856 17.6137 134.599 17.8873C134.342 18.161 134.023 18.3808 133.641 18.5466C133.26 18.7124 132.816 18.7954 132.31 18.7954C131.788 18.7954 131.333 18.7083 130.942 18.5342C130.553 18.36 130.229 18.132 129.972 17.85C129.723 17.568 129.537 17.2488 129.412 16.8922C129.288 16.5274 129.226 16.1542 129.226 15.7727C129.226 15.3663 129.297 14.9807 129.437 14.6159C129.579 14.251 129.778 13.9317 130.034 13.6581C130.3 13.3761 130.619 13.1564 130.992 12.9988C131.374 12.833 131.805 12.75 132.285 12.75ZM132.298 18.3103C132.646 18.3103 132.953 18.2397 133.218 18.0988C133.484 17.9579 133.703 17.7713 133.877 17.539C134.051 17.3068 134.181 17.0456 134.263 16.7554C134.355 16.4568 134.4 16.15 134.4 15.8349C134.4 15.5364 134.35 15.2337 134.25 14.9268C134.16 14.62 134.023 14.3463 133.84 14.1059C133.658 13.8571 133.434 13.6581 133.168 13.5088C132.903 13.3512 132.596 13.2725 132.248 13.2725C131.884 13.2725 131.569 13.3471 131.303 13.4964C131.046 13.6373 130.83 13.8239 130.656 14.0561C130.491 14.2884 130.366 14.5537 130.283 14.8522C130.201 15.1507 130.158 15.4493 130.158 15.7478C130.158 16.0547 130.204 16.3614 130.295 16.6683C130.395 16.9668 130.537 17.2405 130.718 17.4893C130.901 17.7297 131.125 17.9288 131.39 18.0864C131.656 18.2356 131.958 18.3103 132.298 18.3103ZM141.626 17.5888C141.411 17.9371 141.133 18.2273 140.792 18.4595C140.462 18.6834 140.051 18.7954 139.561 18.7954C139.321 18.7954 139.089 18.7664 138.865 18.7083C138.65 18.6586 138.447 18.5715 138.255 18.4471C138.074 18.3227 137.916 18.1569 137.783 17.9495C137.651 17.7422 137.555 17.481 137.497 17.1659C137.456 16.9503 137.434 16.7264 137.434 16.4942C137.443 16.2537 137.443 16.0131 137.434 15.7727C137.434 15.6649 137.431 15.5198 137.422 15.3373C137.422 15.1466 137.422 14.9558 137.422 14.7651C137.422 14.5661 137.422 14.3836 137.422 14.2178C137.422 14.052 137.422 13.9317 137.422 13.8571C137.422 13.7659 137.402 13.687 137.36 13.6207C137.319 13.5461 137.285 13.4923 137.26 13.459C137.178 13.3679 137.074 13.3139 136.949 13.2973C136.825 13.2725 136.697 13.26 136.564 13.26L136.526 13.2103V13.0361L136.564 12.9988H136.788C136.929 12.9988 137.107 12.9988 137.322 12.9988C137.539 12.9905 137.725 12.9739 137.882 12.949L138.317 12.8868L138.392 12.9988C138.376 13.032 138.363 13.0942 138.355 13.1854C138.347 13.2684 138.339 13.3595 138.33 13.459C138.322 13.5586 138.317 13.654 138.317 13.7451C138.317 13.8363 138.317 13.9068 138.317 13.9566C138.317 14.0975 138.314 14.2551 138.305 14.4293C138.305 14.5951 138.301 14.7651 138.293 14.9393C138.293 15.1134 138.289 15.2792 138.28 15.4368C138.28 15.5944 138.28 15.727 138.28 15.8349C138.28 16.0174 138.285 16.2246 138.293 16.4568C138.31 16.6807 138.339 16.8757 138.38 17.0415C138.463 17.4312 138.633 17.7215 138.89 17.9122C139.147 18.1029 139.446 18.1983 139.785 18.1983C140.043 18.1983 140.279 18.1486 140.494 18.049C140.71 17.9412 140.897 17.8127 141.054 17.6634C141.22 17.5142 141.352 17.3566 141.452 17.1907C141.56 17.0166 141.631 16.859 141.663 16.7181V15.101C141.663 14.9268 141.659 14.7817 141.651 14.6656C141.651 14.5412 141.647 14.4334 141.638 14.3422C141.638 14.251 141.635 14.1681 141.626 14.0934C141.626 14.0188 141.622 13.9401 141.613 13.8571C141.597 13.7659 141.572 13.687 141.539 13.6207C141.514 13.5461 141.489 13.4964 141.464 13.4715C141.382 13.372 141.278 13.3139 141.153 13.2973C141.029 13.2725 140.901 13.26 140.768 13.26L140.718 13.2103V13.0361L140.768 12.9988H140.991C141.133 12.9988 141.311 12.9988 141.526 12.9988C141.743 12.9905 141.924 12.9739 142.074 12.949L142.509 12.8868L142.583 12.9988C142.567 13.032 142.555 13.0942 142.546 13.1854C142.539 13.2684 142.53 13.3595 142.521 13.459C142.514 13.5586 142.509 13.654 142.509 13.7451C142.509 13.8363 142.509 13.9068 142.509 13.9566C142.509 14.0229 142.505 14.0851 142.496 14.1432C142.496 14.2013 142.496 14.2717 142.496 14.3547C142.496 14.4376 142.493 14.5371 142.484 14.6532C142.484 14.761 142.484 14.9061 142.484 15.0886V16.4817C142.484 16.6642 142.484 16.8135 142.484 16.9295C142.493 17.0456 142.496 17.1451 142.496 17.2281C142.505 17.311 142.509 17.3898 142.509 17.4644C142.518 17.5307 142.521 17.6053 142.521 17.6883C142.539 17.879 142.559 18.0201 142.583 18.1112C142.608 18.1942 142.651 18.2564 142.708 18.2978C142.775 18.3641 142.87 18.4057 142.994 18.4222C143.127 18.4305 143.26 18.4346 143.392 18.4346L143.442 18.4844L143.467 18.6586L143.442 18.7083C143.292 18.6918 143.131 18.6793 142.957 18.671C142.783 18.6627 142.613 18.6586 142.447 18.6586C142.132 18.6586 141.846 18.671 141.588 18.6959L141.514 18.5715C141.539 18.4636 141.564 18.3227 141.588 18.1486C141.622 17.9744 141.647 17.7962 141.663 17.6137L141.626 17.5888ZM146.323 14.0064C146.539 13.6497 146.816 13.3512 147.157 13.1107C147.496 12.8703 147.919 12.75 148.425 12.75C148.657 12.75 148.889 12.7832 149.122 12.8495C149.353 12.9158 149.565 13.0196 149.756 13.1605C149.955 13.3014 150.117 13.4839 150.241 13.7078C150.373 13.9234 150.46 14.1805 150.502 14.479C150.527 14.6946 150.54 14.9227 150.54 15.1632C150.547 15.4036 150.552 15.6442 150.552 15.8847C150.552 16.1832 150.552 16.4858 150.552 16.7927C150.56 17.0912 150.565 17.3898 150.565 17.6883C150.581 17.879 150.602 18.0201 150.627 18.1112C150.652 18.1942 150.689 18.2564 150.739 18.2978C150.813 18.3641 150.913 18.4057 151.037 18.4222C151.169 18.4305 151.302 18.4346 151.435 18.4346L151.473 18.4844L151.497 18.6586L151.473 18.7083C151.331 18.6918 151.174 18.6793 151 18.671C150.826 18.6627 150.655 18.6586 150.49 18.6586C150.174 18.6586 149.888 18.671 149.632 18.6959L149.545 18.5715C149.577 18.4636 149.602 18.3227 149.619 18.1486C149.636 17.9744 149.648 17.821 149.657 17.6883C149.673 17.34 149.685 17.0001 149.694 16.6683C149.701 16.3283 149.706 16.0464 149.706 15.8225C149.706 15.6318 149.698 15.4244 149.682 15.2005C149.673 14.9766 149.648 14.7817 149.607 14.6159C149.524 14.2262 149.353 13.9358 149.097 13.7451C148.84 13.5544 148.541 13.459 148.202 13.459C147.928 13.459 147.67 13.5171 147.43 13.6332C147.198 13.7492 146.999 13.8944 146.833 14.0686C146.667 14.2344 146.535 14.4127 146.435 14.6034C146.343 14.7859 146.299 14.9434 146.299 15.0761V16.4817C146.299 16.6642 146.299 16.8135 146.299 16.9295C146.299 17.0456 146.299 17.1451 146.299 17.2281C146.306 17.311 146.315 17.3898 146.323 17.4644C146.331 17.5307 146.34 17.6053 146.348 17.6883C146.364 17.8625 146.381 17.9952 146.398 18.0864C146.423 18.1693 146.468 18.2397 146.535 18.2978C146.601 18.3559 146.692 18.3932 146.809 18.4098C146.933 18.4263 147.057 18.4346 147.182 18.4346L147.244 18.4968L147.269 18.6586L147.244 18.7083C147.185 18.7083 147.098 18.7042 146.983 18.6959C146.866 18.6875 146.741 18.6793 146.61 18.671C146.476 18.671 146.352 18.6669 146.236 18.6586C146.119 18.6586 146.032 18.6586 145.975 18.6586H145.801C145.743 18.6586 145.652 18.6586 145.527 18.6586C145.411 18.6669 145.286 18.671 145.154 18.671C145.03 18.6793 144.906 18.6875 144.781 18.6959C144.664 18.7042 144.577 18.7083 144.52 18.7083L144.508 18.6586L144.52 18.4844L144.57 18.4346C144.702 18.4346 144.831 18.4305 144.955 18.4222C145.087 18.4057 145.187 18.3641 145.254 18.2978C145.32 18.2397 145.361 18.1651 145.378 18.0739C145.403 17.9827 145.423 17.8541 145.44 17.6883C145.448 17.5556 145.457 17.423 145.465 17.2903C145.473 17.1493 145.478 16.9295 145.478 16.631V15.101C145.478 14.9268 145.478 14.7817 145.478 14.6656C145.478 14.5412 145.473 14.4334 145.465 14.3422C145.465 14.251 145.46 14.1681 145.453 14.0934C145.453 14.0188 145.448 13.9401 145.44 13.8571C145.423 13.7659 145.398 13.687 145.366 13.6207C145.332 13.5461 145.304 13.4964 145.279 13.4715C145.195 13.372 145.092 13.3139 144.968 13.2973C144.843 13.2725 144.714 13.26 144.582 13.26L144.532 13.2103V13.0361L144.582 12.9988H144.806C144.947 12.9988 145.124 12.9988 145.341 12.9988C145.556 12.9905 145.743 12.9739 145.901 12.949L146.336 12.8868L146.411 12.9988C146.368 13.1066 146.34 13.2559 146.323 13.4466C146.306 13.6291 146.294 13.8073 146.286 13.9815L146.323 14.0064ZM155.744 13.5212H154.127C154.127 14.0602 154.122 14.5578 154.114 15.0139C154.114 15.4701 154.114 15.8722 154.114 16.2205C154.114 16.5605 154.109 16.8341 154.102 17.0415C154.102 17.2488 154.102 17.3773 154.102 17.4271C154.102 17.7505 154.164 17.9661 154.288 18.0739C154.413 18.1818 154.557 18.2356 154.724 18.2356C154.864 18.2356 155.026 18.2107 155.209 18.161C155.399 18.1029 155.552 18.0407 155.669 17.9744L155.781 18.0615L155.669 18.4098C155.477 18.5425 155.262 18.6378 155.022 18.6959C154.79 18.7622 154.582 18.7954 154.4 18.7954C153.977 18.7954 153.679 18.6793 153.505 18.4471C153.331 18.2149 153.244 17.9163 153.244 17.5515C153.244 17.4768 153.247 17.3235 153.256 17.0912C153.264 16.859 153.272 16.5688 153.281 16.2205C153.288 15.8722 153.297 15.4701 153.306 15.0139C153.313 14.5578 153.318 14.0602 153.318 13.5212H152.423L152.373 13.459V13.2227L152.423 13.1729L153.318 12.9988C153.318 12.7086 153.31 12.4142 153.293 12.1156C153.285 11.8088 153.272 11.5103 153.256 11.22L153.343 11.1454L153.517 11.1329C153.583 11.1246 153.691 11.1081 153.841 11.0832C153.99 11.0583 154.093 11.0293 154.152 10.9961L154.264 11.0459C154.239 11.162 154.218 11.2988 154.201 11.4564C154.184 11.6056 154.168 11.7673 154.152 11.9415C154.143 12.1156 154.134 12.2939 154.127 12.4764C154.127 12.6588 154.127 12.833 154.127 12.9988L155.744 12.9242L155.806 12.9739V13.459L155.744 13.5212ZM159.625 18.7083C159.568 18.7083 159.481 18.7042 159.364 18.6959C159.249 18.6875 159.124 18.6793 158.991 18.671C158.859 18.671 158.735 18.6669 158.618 18.6586C158.502 18.6586 158.415 18.6586 158.357 18.6586H158.183C158.125 18.6586 158.033 18.6586 157.909 18.6586C157.793 18.6669 157.669 18.671 157.536 18.671C157.411 18.6793 157.287 18.6875 157.163 18.6959C157.047 18.7042 156.96 18.7083 156.902 18.7083L156.889 18.6586L156.902 18.4844L156.951 18.4346C157.084 18.4346 157.212 18.4305 157.337 18.4222C157.47 18.4057 157.569 18.3641 157.635 18.2978C157.703 18.2397 157.744 18.1651 157.76 18.0739C157.785 17.9827 157.806 17.8541 157.822 17.6883C157.831 17.5556 157.839 17.423 157.847 17.2903C157.856 17.1493 157.859 16.9295 157.859 16.631V15.101C157.859 14.9268 157.859 14.7817 157.859 14.6656C157.859 14.5412 157.856 14.4334 157.847 14.3422C157.847 14.251 157.843 14.1681 157.834 14.0934C157.834 14.0188 157.831 13.9401 157.822 13.8571C157.806 13.7659 157.781 13.687 157.747 13.6207C157.715 13.5461 157.685 13.4964 157.66 13.4715C157.578 13.372 157.474 13.3139 157.349 13.2973C157.225 13.2725 157.097 13.26 156.964 13.26L156.914 13.2103V13.0361L156.964 12.9988H157.188C157.329 12.9988 157.507 12.9988 157.722 12.9988C157.939 12.9905 158.125 12.9739 158.282 12.949L158.717 12.8868L158.792 12.9988C158.776 13.032 158.76 13.09 158.742 13.1729C158.735 13.2559 158.726 13.3471 158.717 13.4466C158.717 13.5378 158.714 13.6291 158.705 13.7203C158.705 13.8114 158.705 13.882 158.705 13.9317C158.705 13.998 158.701 14.0644 158.693 14.1307C158.693 14.1888 158.693 14.2592 158.693 14.3422C158.693 14.4252 158.689 14.5247 158.68 14.6407C158.68 14.7568 158.68 14.9061 158.68 15.0886V16.4817C158.68 16.6642 158.68 16.8135 158.68 16.9295C158.689 17.0456 158.693 17.1451 158.693 17.2281C158.701 17.311 158.705 17.3898 158.705 17.4644C158.714 17.5307 158.722 17.6053 158.73 17.6883C158.747 17.8625 158.763 17.9952 158.78 18.0864C158.804 18.1693 158.851 18.2397 158.916 18.2978C158.984 18.3559 159.074 18.3932 159.19 18.4098C159.314 18.4263 159.439 18.4346 159.563 18.4346L159.625 18.4968L159.65 18.6586L159.625 18.7083ZM157.536 10.8095C157.536 10.6437 157.591 10.5027 157.698 10.3866C157.814 10.2622 157.955 10.2 158.12 10.2C158.287 10.2 158.428 10.2622 158.543 10.3866C158.668 10.5027 158.73 10.6437 158.73 10.8095C158.73 10.9754 158.668 11.1164 158.543 11.2325C158.428 11.3403 158.287 11.3942 158.12 11.3942C157.955 11.3942 157.814 11.3403 157.698 11.2325C157.591 11.1164 157.536 10.9754 157.536 10.8095ZM164.332 18.5715C164.357 18.4803 164.373 18.3435 164.381 18.161C164.398 17.9785 164.419 17.8086 164.444 17.651L164.431 17.6137C164.323 17.7629 164.195 17.9081 164.046 18.049C163.896 18.19 163.731 18.3186 163.548 18.4346C163.374 18.5425 163.184 18.6296 162.976 18.6959C162.777 18.7622 162.566 18.7954 162.342 18.7954C162.084 18.7954 161.857 18.7497 161.658 18.6586C161.459 18.5674 161.293 18.4471 161.16 18.2978C161.027 18.1486 160.928 17.9744 160.862 17.7754C160.796 17.5764 160.762 17.369 160.762 17.1534C160.762 16.8466 160.833 16.5812 160.974 16.3573C161.114 16.1251 161.301 15.9344 161.533 15.7851C161.748 15.6524 162.002 15.5447 162.292 15.4617C162.59 15.3788 162.877 15.3208 163.15 15.2876C163.432 15.2462 163.685 15.2213 163.909 15.2129C164.133 15.1964 164.282 15.1881 164.357 15.1881H164.531C164.522 14.8812 164.506 14.6407 164.481 14.4666C164.456 14.2841 164.423 14.1349 164.381 14.0188C164.291 13.77 164.133 13.5918 163.909 13.4839C163.685 13.3679 163.415 13.3098 163.1 13.3098C162.967 13.3098 162.823 13.3222 162.665 13.3471C162.516 13.372 162.37 13.4176 162.23 13.4839C162.097 13.5502 161.981 13.6456 161.882 13.77C161.782 13.8861 161.724 14.0396 161.707 14.2303L161.658 14.2676H161.384L161.272 13.3471L161.309 13.2725C161.35 13.2227 161.438 13.1688 161.571 13.1107C161.704 13.0527 161.857 12.9988 162.031 12.949C162.214 12.8909 162.413 12.8454 162.628 12.8122C162.852 12.7708 163.072 12.75 163.287 12.75C163.585 12.75 163.863 12.7914 164.12 12.8744C164.378 12.949 164.597 13.0651 164.779 13.2227C164.97 13.3803 165.119 13.5793 165.227 13.8198C165.335 14.052 165.389 14.3257 165.389 14.6407C165.389 14.989 165.385 15.3 165.376 15.5737C165.376 15.839 165.373 16.0878 165.364 16.32C165.355 16.5439 165.348 16.7678 165.339 16.9917C165.339 17.2073 165.339 17.4395 165.339 17.6883C165.355 17.879 165.376 18.0201 165.401 18.1112C165.426 18.1942 165.467 18.2564 165.526 18.2978C165.592 18.3641 165.687 18.4057 165.812 18.4222C165.945 18.4305 166.077 18.4346 166.21 18.4346L166.26 18.4844L166.272 18.6586L166.26 18.7083C166.11 18.6918 165.949 18.6793 165.774 18.671C165.6 18.6627 165.43 18.6586 165.265 18.6586C164.95 18.6586 164.664 18.671 164.406 18.6959L164.332 18.5715ZM164.332 17.2281C164.357 17.1866 164.381 17.1369 164.406 17.0788C164.44 17.0207 164.46 16.9503 164.469 16.8673L164.531 15.6234H164.419C164.087 15.6234 163.756 15.6442 163.424 15.6856C163.092 15.7188 162.793 15.7892 162.528 15.8971C162.271 16.0049 162.059 16.1542 161.894 16.3449C161.729 16.5356 161.645 16.7803 161.645 17.0788C161.645 17.3939 161.736 17.6469 161.919 17.8376C162.102 18.0201 162.338 18.1112 162.628 18.1112C162.802 18.1112 162.976 18.0823 163.15 18.0242C163.324 17.9661 163.486 17.8914 163.635 17.8003C163.793 17.7091 163.93 17.6137 164.046 17.5142C164.17 17.4146 164.266 17.3192 164.332 17.2281ZM169.059 14.0064C169.274 13.6497 169.553 13.3512 169.893 13.1107C170.232 12.8703 170.655 12.75 171.161 12.75C171.394 12.75 171.625 12.7832 171.858 12.8495C172.09 12.9158 172.302 13.0196 172.492 13.1605C172.691 13.3014 172.853 13.4839 172.977 13.7078C173.11 13.9234 173.197 14.1805 173.238 14.479C173.263 14.6946 173.276 14.9227 173.276 15.1632C173.284 15.4036 173.288 15.6442 173.288 15.8847C173.288 16.1832 173.288 16.4858 173.288 16.7927C173.297 17.0912 173.3 17.3898 173.3 17.6883C173.317 17.879 173.338 18.0201 173.363 18.1112C173.387 18.1942 173.425 18.2564 173.475 18.2978C173.549 18.3641 173.649 18.4057 173.773 18.4222C173.906 18.4305 174.038 18.4346 174.171 18.4346L174.208 18.4844L174.233 18.6586L174.208 18.7083C174.068 18.6918 173.91 18.6793 173.736 18.671C173.562 18.6627 173.391 18.6586 173.226 18.6586C172.911 18.6586 172.625 18.671 172.368 18.6959L172.281 18.5715C172.314 18.4636 172.339 18.3227 172.355 18.1486C172.371 17.9744 172.384 17.821 172.392 17.6883C172.409 17.34 172.421 17.0001 172.43 16.6683C172.438 16.3283 172.442 16.0464 172.442 15.8225C172.442 15.6318 172.433 15.4244 172.417 15.2005C172.409 14.9766 172.384 14.7817 172.343 14.6159C172.259 14.2262 172.09 13.9358 171.833 13.7451C171.575 13.5544 171.277 13.459 170.937 13.459C170.664 13.459 170.406 13.5171 170.166 13.6332C169.934 13.7492 169.735 13.8944 169.569 14.0686C169.404 14.2344 169.271 14.4127 169.171 14.6034C169.08 14.7859 169.034 14.9434 169.034 15.0761V16.4817C169.034 16.6642 169.034 16.8135 169.034 16.9295C169.034 17.0456 169.034 17.1451 169.034 17.2281C169.043 17.311 169.05 17.3898 169.059 17.4644C169.068 17.5307 169.075 17.6053 169.084 17.6883C169.1 17.8625 169.118 17.9952 169.134 18.0864C169.159 18.1693 169.205 18.2397 169.271 18.2978C169.337 18.3559 169.429 18.3932 169.544 18.4098C169.669 18.4263 169.793 18.4346 169.917 18.4346L169.98 18.4968L170.004 18.6586L169.98 18.7083C169.921 18.7083 169.834 18.7042 169.718 18.6959C169.603 18.6875 169.478 18.6793 169.345 18.671C169.212 18.671 169.088 18.6669 168.972 18.6586C168.856 18.6586 168.769 18.6586 168.711 18.6586H168.537C168.478 18.6586 168.388 18.6586 168.263 18.6586C168.148 18.6669 168.023 18.671 167.89 18.671C167.766 18.6793 167.641 18.6875 167.517 18.6959C167.401 18.7042 167.314 18.7083 167.256 18.7083L167.243 18.6586L167.256 18.4844L167.306 18.4346C167.439 18.4346 167.567 18.4305 167.691 18.4222C167.824 18.4057 167.924 18.3641 167.99 18.2978C168.055 18.2397 168.098 18.1651 168.114 18.0739C168.139 17.9827 168.16 17.8541 168.176 17.6883C168.185 17.5556 168.192 17.423 168.201 17.2903C168.21 17.1493 168.213 16.9295 168.213 16.631V15.101C168.213 14.9268 168.213 14.7817 168.213 14.6656C168.213 14.5412 168.21 14.4334 168.201 14.3422C168.201 14.251 168.197 14.1681 168.189 14.0934C168.189 14.0188 168.185 13.9401 168.176 13.8571C168.16 13.7659 168.135 13.687 168.102 13.6207C168.068 13.5461 168.039 13.4964 168.014 13.4715C167.931 13.372 167.828 13.3139 167.704 13.2973C167.579 13.2725 167.451 13.26 167.318 13.26L167.268 13.2103V13.0361L167.318 12.9988H167.542C167.682 12.9988 167.861 12.9988 168.077 12.9988C168.292 12.9905 168.478 12.9739 168.636 12.949L169.072 12.8868L169.146 12.9988C169.105 13.1066 169.075 13.2559 169.059 13.4466C169.043 13.6291 169.031 13.8073 169.022 13.9815L169.059 14.0064ZM178.156 15.3622C178.504 15.4368 178.782 15.5405 178.989 15.6732C179.204 15.7976 179.37 15.9344 179.487 16.0837C179.602 16.2329 179.677 16.3863 179.711 16.5439C179.752 16.6932 179.773 16.8341 179.773 16.9668C179.773 17.2322 179.718 17.4768 179.611 17.7007C179.503 17.9246 179.345 18.1196 179.139 18.2854C178.94 18.443 178.695 18.5674 178.405 18.6586C178.114 18.7497 177.787 18.7954 177.422 18.7954C177.015 18.7954 176.634 18.7497 176.278 18.6586C175.93 18.559 175.651 18.4554 175.445 18.3476L175.42 18.2356L175.606 16.9544H175.892L175.93 17.0042C175.93 17.4022 176.054 17.7173 176.303 17.9495C176.552 18.1734 176.912 18.2854 177.385 18.2854C177.666 18.2854 177.902 18.2522 178.094 18.1859C178.284 18.1196 178.433 18.0325 178.542 17.9247C178.657 17.8168 178.741 17.7007 178.79 17.5764C178.84 17.452 178.865 17.3317 178.865 17.2156C178.865 17.141 178.86 17.058 178.852 16.9668C178.844 16.8673 178.81 16.7719 178.753 16.6807C178.695 16.5812 178.607 16.4901 178.492 16.4071C178.375 16.3159 178.209 16.2413 177.994 16.1832L176.8 15.8847C176.527 15.8184 176.303 15.7313 176.129 15.6234C175.955 15.5156 175.818 15.3995 175.718 15.2751C175.619 15.1424 175.548 15.0056 175.507 14.8646C175.465 14.7154 175.445 14.5661 175.445 14.4168C175.445 14.1432 175.498 13.9027 175.606 13.6954C175.713 13.4798 175.859 13.3057 176.042 13.1729C176.232 13.032 176.452 12.9283 176.701 12.862C176.95 12.7873 177.218 12.75 177.509 12.75C177.899 12.75 178.255 12.7998 178.579 12.8993C178.91 12.9988 179.167 13.0983 179.35 13.1978L179.387 13.3098L179.25 14.2676H178.989L178.94 14.2303C178.94 14.0396 178.885 13.882 178.778 13.7576C178.678 13.6249 178.554 13.5212 178.405 13.4466C178.255 13.3636 178.098 13.3057 177.932 13.2725C177.765 13.2392 177.621 13.2227 177.497 13.2227C177.081 13.2227 176.783 13.3263 176.601 13.5337C176.418 13.741 176.328 13.9731 176.328 14.2303C176.328 14.4209 176.39 14.6034 176.514 14.7776C176.646 14.9434 176.9 15.072 177.273 15.1632L178.156 15.3622Z" fill="#F1F1F1"/>
<path d="M33.0327 24.689L32.9693 25.4925L32.8847 25.5771C32.6592 25.5771 32.4478 25.5912 32.2504 25.6194C32.053 25.6335 31.8839 25.6899 31.743 25.7886C31.6161 25.8872 31.4963 26.0141 31.3835 26.1692C31.2849 26.3243 31.2355 26.5992 31.2355 26.9939C31.2215 27.1913 31.2073 27.3746 31.1932 27.5437C31.1932 27.7129 31.1861 27.9103 31.1721 28.1358C31.1721 28.3613 31.1721 28.6363 31.1721 28.9605C31.1721 29.2848 31.1721 29.7007 31.1721 30.2082V33.2532C31.1721 33.7608 31.1721 34.1766 31.1721 34.5009C31.1721 34.811 31.1721 35.0718 31.1721 35.2833C31.1861 35.4948 31.1932 35.678 31.1932 35.8331C31.2073 35.974 31.2215 36.1291 31.2355 36.2983C31.2637 36.693 31.3272 36.9679 31.4258 37.123C31.5244 37.2781 31.6302 37.405 31.743 37.5037C31.8698 37.6023 32.0319 37.6657 32.2293 37.694C32.4407 37.708 32.6592 37.7151 32.8847 37.7151L32.9693 37.7997L33.0327 38.6033L32.9904 38.6879C32.8918 38.6879 32.7296 38.6808 32.5041 38.6667C32.2786 38.6527 32.0461 38.6385 31.8064 38.6244C31.5667 38.6104 31.3341 38.5962 31.1087 38.5821C30.8832 38.5681 30.721 38.561 30.6223 38.561H29.3749C29.2762 38.561 29.114 38.5681 28.8886 38.5821C28.6631 38.5962 28.4305 38.6104 28.1908 38.6244C27.9511 38.6385 27.7186 38.6527 27.4931 38.6667C27.2676 38.6808 27.1054 38.6879 27.0068 38.6879L26.9645 38.6033L27.0279 37.7997L27.1336 37.7151C27.3591 37.7151 27.5706 37.708 27.7679 37.694C27.9794 37.6657 28.1414 37.6023 28.2542 37.5037C28.3671 37.405 28.4657 37.2781 28.5503 37.123C28.6489 36.9679 28.7265 36.693 28.7828 36.2983C28.7828 36.1997 28.7828 36.0869 28.7828 35.96C28.7969 35.819 28.804 35.6499 28.804 35.4525C28.818 35.2551 28.8251 35.0155 28.8251 34.7335C28.8251 34.4515 28.8251 34.0991 28.8251 33.6762V30.2293C28.8251 29.7359 28.8251 29.32 28.8251 28.9817C28.8251 28.6433 28.818 28.3544 28.804 28.1147C28.804 27.875 28.7969 27.6706 28.7828 27.5014C28.7828 27.3323 28.7758 27.1631 28.7617 26.9939C28.7335 26.6273 28.67 26.3595 28.5714 26.1904C28.4728 26.0212 28.3671 25.8872 28.2542 25.7886C28.1274 25.6899 27.9653 25.6335 27.7679 25.6194C27.5706 25.5912 27.3591 25.5771 27.1336 25.5771L27.0279 25.4925L26.9645 24.689L27.0068 24.6044C27.1054 24.6044 27.2676 24.6115 27.4931 24.6255C27.7186 24.6396 27.9511 24.6538 28.1908 24.6678C28.4305 24.6819 28.6631 24.6961 28.8886 24.7101C29.114 24.7242 29.2762 24.7313 29.3749 24.7313H30.6223C30.721 24.7313 30.8832 24.7242 31.1087 24.7101C31.3341 24.6961 31.5667 24.6819 31.8064 24.6678C32.0461 24.6538 32.2786 24.6396 32.5041 24.6255C32.7296 24.6115 32.8918 24.6044 32.9904 24.6044L33.0327 24.689ZM47.3087 26.0423C47.1819 26.1269 46.9916 26.282 46.7379 26.5076C46.4982 26.7331 46.2304 27.001 45.9344 27.3111C45.6384 27.6072 45.3212 27.9315 44.9829 28.2839C44.6587 28.6363 44.3415 28.9746 44.0315 29.2989L42.5937 30.8214C43.1294 31.6109 43.6438 32.4074 44.1372 33.211C44.6446 34.0005 45.2296 34.7617 45.8921 35.4948C46.1741 35.819 46.4489 36.108 46.7167 36.3618C46.9987 36.6015 47.2947 36.8129 47.6048 36.9961C47.9148 37.1653 48.2462 37.3133 48.5985 37.4402C48.9509 37.553 49.3526 37.6446 49.8037 37.7151L49.9306 37.7997L49.9729 38.6033L49.9306 38.6879C49.7191 38.6879 49.4936 38.6879 49.254 38.6879C49.0143 38.7019 48.7677 38.7161 48.5139 38.7301C48.2743 38.7442 48.0488 38.7513 47.8373 38.7513C47.6259 38.7653 47.4497 38.7724 47.3087 38.7724C46.9422 38.7724 46.6039 38.7231 46.2938 38.6244C45.9838 38.5398 45.6807 38.3918 45.3847 38.1803C45.1027 37.9689 44.8138 37.6869 44.5178 37.3345C44.2218 36.9821 43.8975 36.5521 43.5452 36.0446C43.4606 35.9177 43.3126 35.6991 43.1011 35.389C42.9038 35.0647 42.6854 34.7123 42.4457 34.3317C42.206 33.9511 41.9665 33.5704 41.7268 33.1898C41.4871 32.7951 41.2757 32.4568 41.0925 32.1748C40.9233 32.3299 40.7542 32.4849 40.585 32.64C40.4159 32.7809 40.2538 32.929 40.0987 33.0841V33.2532C40.0987 33.8453 40.0987 34.3035 40.0987 34.6278C40.0987 34.9379 40.0987 35.1916 40.0987 35.389C40.1128 35.5723 40.1199 35.7274 40.1199 35.8542C40.1339 35.9671 40.1481 36.1151 40.1622 36.2983C40.1904 36.7072 40.2538 36.9891 40.3524 37.1442C40.4511 37.2993 40.5568 37.4191 40.6696 37.5037C40.7965 37.6165 40.9585 37.6799 41.1559 37.694C41.3673 37.708 41.5859 37.7151 41.8114 37.7151L41.8959 37.7997L41.9594 38.6033L41.9171 38.6879C41.8185 38.6879 41.6563 38.6808 41.4308 38.6667C41.2053 38.6527 40.9727 38.6385 40.733 38.6244C40.4934 38.6104 40.2608 38.5962 40.0353 38.5821C39.8098 38.5681 39.6476 38.561 39.549 38.561H38.3015C38.2029 38.561 38.0407 38.5681 37.8152 38.5821C37.5897 38.5962 37.3571 38.6104 37.1175 38.6244C36.8778 38.6385 36.6452 38.6527 36.4197 38.6667C36.1942 38.6808 36.032 38.6879 35.9334 38.6879L35.8911 38.6033L35.9545 37.7997L36.0603 37.7151C36.2858 37.7151 36.4972 37.708 36.6946 37.694C36.892 37.6657 37.054 37.6023 37.1809 37.5037C37.2937 37.405 37.3994 37.2781 37.498 37.123C37.6109 36.9679 37.6812 36.693 37.7095 36.2983C37.7095 36.1997 37.7095 36.0869 37.7095 35.96C37.7235 35.819 37.7306 35.6499 37.7306 35.4525C37.7447 35.2551 37.7518 35.0155 37.7518 34.7335C37.7518 34.4515 37.7518 34.0991 37.7518 33.6762V30.2293C37.7518 29.7359 37.7518 29.32 37.7518 28.9817C37.7518 28.6433 37.7518 28.3544 37.7518 28.1147C37.7518 27.875 37.7447 27.6706 37.7306 27.5014C37.7306 27.3323 37.7235 27.1631 37.7095 26.9939C37.6812 26.6133 37.6109 26.3384 37.498 26.1692C37.3994 26 37.2937 25.8732 37.1809 25.7886C37.054 25.6758 36.892 25.6123 36.6946 25.5983C36.4972 25.5842 36.2858 25.5771 36.0603 25.5771L35.9545 25.4925L35.8911 24.689L35.9334 24.6044C36.032 24.6044 36.1942 24.6115 36.4197 24.6255C36.6452 24.6396 36.8778 24.6538 37.1175 24.6678C37.3571 24.6819 37.5897 24.6961 37.8152 24.7101C38.0407 24.7242 38.2029 24.7313 38.3015 24.7313H39.549C39.6476 24.7313 39.8098 24.7242 40.0353 24.7101C40.2608 24.6961 40.4934 24.6819 40.733 24.6678C40.9727 24.6538 41.2053 24.6396 41.4308 24.6255C41.6563 24.6115 41.8185 24.6044 41.9171 24.6044L41.9594 24.689L41.8959 25.4925L41.8114 25.5771C41.614 25.5771 41.4025 25.5912 41.1771 25.6194C40.9656 25.6335 40.7965 25.6899 40.6696 25.7886C40.5568 25.8872 40.4441 26.0141 40.3313 26.1692C40.2327 26.3243 40.1762 26.5992 40.1622 26.9939C40.1481 27.1631 40.1339 27.3323 40.1199 27.5014C40.1199 27.6566 40.1128 27.8469 40.0987 28.0724C40.0987 28.2839 40.0987 28.5376 40.0987 28.8337C40.0987 29.1157 40.0987 29.461 40.0987 29.8698V30.8849C40.3807 30.7439 40.7048 30.5325 41.0713 30.2505C41.4379 29.9544 41.8043 29.6372 42.1708 29.2989C42.4386 29.0451 42.7135 28.7702 42.9954 28.4742C43.2774 28.1641 43.5311 27.868 43.7566 27.586C43.9963 27.304 44.1866 27.0503 44.3275 26.8248C44.4684 26.5992 44.5389 26.4441 44.5389 26.3595C44.5389 26.2044 44.5037 26.0846 44.4332 26C44.3769 25.9014 44.2923 25.8238 44.1795 25.7674C44.0808 25.7111 43.9609 25.6688 43.82 25.6406C43.6791 25.6123 43.5381 25.5842 43.3972 25.556L43.2914 25.4714V24.6678L43.3972 24.5832C43.6791 24.6396 43.9751 24.6749 44.2852 24.689C44.6094 24.703 44.9336 24.7101 45.2578 24.7101H47.1396C47.3087 24.7101 47.4497 24.7101 47.5625 24.7101C47.6893 24.7101 47.8091 24.703 47.9219 24.689C48.0488 24.6749 48.1827 24.6607 48.3236 24.6467C48.4646 24.6326 48.6337 24.6115 48.8311 24.5832L48.9157 24.6678V25.4714L48.8311 25.556C48.6337 25.5842 48.38 25.6406 48.0699 25.7251C47.7739 25.8097 47.5202 25.9155 47.3087 26.0423ZM57.8656 24.7313C58.063 24.7313 58.3519 24.7313 58.7325 24.7313C59.1271 24.7172 59.5288 24.703 59.9377 24.689C60.3465 24.6749 60.7129 24.6678 61.0371 24.6678C61.3614 24.6538 61.5586 24.6467 61.6292 24.6467L61.756 24.8581L61.6503 27.586H60.6988L60.6143 27.5014C60.586 27.2336 60.5437 27.0222 60.4874 26.867C60.4451 26.7119 60.3182 26.5992 60.1068 26.5287C59.8954 26.4582 59.5642 26.4159 59.113 26.4018C58.6761 26.3878 58.0629 26.3807 57.2735 26.3807H56.0683L56.0472 26.571C56.0331 26.7684 56.019 26.9516 56.0049 27.1208C56.0049 27.29 55.9978 27.4874 55.9838 27.7129C55.9838 27.9384 55.9838 28.2133 55.9838 28.5376C55.9838 28.8619 55.9838 29.2777 55.9838 29.7852V30.5042C56.3221 30.4902 56.6463 30.4902 56.9564 30.5042C57.2665 30.5042 57.5555 30.4971 57.8233 30.4831C58.0911 30.469 58.3167 30.4479 58.4999 30.4196C58.6973 30.3773 58.8382 30.3139 58.9228 30.2293C59.0637 30.0884 59.1342 29.891 59.1342 29.6372L59.2399 29.5315L60.0222 29.4892L60.1068 29.5315C60.0786 29.8558 60.0505 30.1376 60.0222 30.3773C60.0082 30.617 60.0011 30.8919 60.0011 31.202C60.0011 31.5404 60.0082 31.8576 60.0222 32.1536C60.0505 32.4356 60.0786 32.7457 60.1068 33.0841L60.0222 33.1264L59.2188 33.0841L59.1342 33.0206C59.1342 32.6682 59.0708 32.4074 58.9439 32.2382C58.8311 32.0831 58.507 31.9985 57.9713 31.9845C57.4498 31.9562 56.8647 31.9422 56.2164 31.9422H55.9838V33.6762C55.9838 34.085 55.9838 34.4234 55.9838 34.6912C55.9978 34.959 56.0049 35.1916 56.0049 35.389C56.019 35.5723 56.0331 35.7485 56.0472 35.9177C56.0613 36.0869 56.0754 36.2843 56.0895 36.5098C56.1035 36.7776 56.2446 36.9116 56.5124 36.9116H57.4638C58.2673 36.9116 58.8945 36.8975 59.3456 36.8693C59.8108 36.841 60.1631 36.7776 60.4028 36.679C60.6425 36.5661 60.8116 36.4111 60.9103 36.2137C61.0231 36.0163 61.1217 35.7485 61.2063 35.4102L61.2909 35.3256H62.2846L61.8829 38.4341L61.7137 38.6456C61.6432 38.6456 61.4671 38.6385 61.1851 38.6244C60.9174 38.6244 60.6143 38.6173 60.276 38.6033C59.9377 38.5892 59.5994 38.575 59.2611 38.561C58.9228 38.561 58.655 38.561 58.4576 38.561H54.1866C54.0879 38.561 53.9257 38.5681 53.7003 38.5821C53.4748 38.5962 53.2422 38.6104 53.0025 38.6244C52.7628 38.6385 52.5303 38.6527 52.3048 38.6667C52.0793 38.6808 51.9171 38.6879 51.8185 38.6879L51.7762 38.6033L51.8396 37.7997L51.9453 37.7151C52.1708 37.7151 52.3822 37.708 52.5796 37.694C52.777 37.6657 52.9391 37.6023 53.0659 37.5037C53.1787 37.405 53.2845 37.2781 53.3831 37.123C53.4959 36.9679 53.5663 36.693 53.5945 36.2983C53.5945 36.1997 53.5945 36.0869 53.5945 35.96C53.6086 35.819 53.6157 35.6499 53.6157 35.4525C53.6297 35.2551 53.6368 35.0155 53.6368 34.7335C53.6368 34.4515 53.6368 34.0991 53.6368 33.6762V30.2293C53.6368 29.7359 53.6368 29.32 53.6368 28.9817C53.6368 28.6433 53.6368 28.3544 53.6368 28.1147C53.6368 27.875 53.6297 27.6706 53.6157 27.5014C53.6157 27.3323 53.6086 27.1631 53.5945 26.9939C53.5663 26.6133 53.4959 26.3384 53.3831 26.1692C53.2845 26 53.1787 25.8732 53.0659 25.7886C52.9391 25.6758 52.777 25.6123 52.5796 25.5983C52.3822 25.5842 52.1708 25.5771 51.9453 25.5771L51.8396 25.4925L51.7762 24.689L51.8185 24.6044C51.9171 24.6044 52.0793 24.6115 52.3048 24.6255C52.5303 24.6396 52.7699 24.6538 53.0236 24.6678C53.2914 24.6819 53.5452 24.6961 53.7848 24.7101C54.0385 24.7242 54.2429 24.7313 54.398 24.7313H57.8656ZM72.8394 32.64L72.5011 34.374H65.566L65.8832 32.64H72.8394ZM86.7896 27.8398C86.7473 27.5297 86.6134 27.2688 86.3879 27.0574C86.1622 26.8318 85.8804 26.6556 85.5421 26.5287C85.2179 26.4018 84.8513 26.3102 84.4426 26.2538C84.0479 26.1975 83.6532 26.1692 83.2586 26.1692C82.004 26.1692 81.0314 26.4864 80.3407 27.1208C79.8051 27.6001 79.4174 28.2416 79.1778 29.0451C78.9382 29.8346 78.8184 30.6945 78.8184 31.625C78.8184 32.5131 78.9382 33.2955 79.1778 33.9722C79.4316 34.6489 79.7699 35.2199 80.1927 35.6851C80.6297 36.1362 81.1442 36.4815 81.7362 36.7212C82.3283 36.9468 82.9766 37.0596 83.6815 37.0596C84.2875 37.0596 84.9853 36.9961 85.7747 36.8693C86.5782 36.7283 87.3322 36.4675 88.0371 36.0869L88.2908 36.5521L87.7833 37.4825C87.0503 37.9337 86.3103 38.2649 85.5633 38.4764C84.8302 38.6879 84.0761 38.7936 83.3009 38.7936C82.2437 38.7936 81.2851 38.6244 80.4253 38.2861C79.5654 37.9477 78.8254 37.4685 78.2052 36.8481C77.599 36.2137 77.1269 35.4665 76.7886 34.6066C76.4503 33.7325 76.2812 32.7669 76.2812 31.7096C76.2812 30.7228 76.4292 29.7923 76.7252 28.9182C77.0352 28.0301 77.4863 27.2617 78.0784 26.6133C78.6844 25.9648 79.4245 25.4502 80.2985 25.0696C81.1865 24.689 82.2155 24.4987 83.3855 24.4987C83.6673 24.4987 83.9986 24.5127 84.3792 24.541C84.7598 24.555 85.1615 24.5973 85.5844 24.6678C86.0073 24.7242 86.4301 24.8159 86.853 24.9427C87.2899 25.0556 87.7057 25.2036 88.1005 25.3868L88.1639 25.5771L87.8891 27.9244H86.853L86.7896 27.8398ZM98.3846 24.4987L102.021 34.0991C102.148 34.4515 102.261 34.7475 102.36 34.9872C102.458 35.2269 102.536 35.4313 102.592 35.6005C102.663 35.7697 102.719 35.9106 102.761 36.0234C102.818 36.1221 102.867 36.2137 102.909 36.2983C103.078 36.6507 103.248 36.9256 103.417 37.123C103.6 37.3063 103.776 37.4473 103.945 37.546C104.129 37.6305 104.312 37.6799 104.495 37.694C104.678 37.708 104.862 37.7151 105.045 37.7151L105.151 37.7997L105.214 38.6033L105.172 38.6879C105.073 38.6879 104.925 38.6808 104.728 38.6667C104.53 38.6527 104.326 38.6385 104.115 38.6244C103.903 38.6104 103.699 38.5962 103.501 38.5821C103.318 38.5681 103.177 38.561 103.078 38.561H101.535C101.436 38.561 101.274 38.5681 101.049 38.5821C100.823 38.5962 100.584 38.6104 100.33 38.6244C100.09 38.6385 99.8576 38.6527 99.6321 38.6667C99.4066 38.6808 99.2444 38.6879 99.1458 38.6879L99.1035 38.6033L99.1669 37.7997L99.2515 37.7151C99.618 37.7151 99.8929 37.6728 100.076 37.5882C100.273 37.4896 100.372 37.2358 100.372 36.827C100.372 36.6015 100.33 36.2843 100.245 35.8754C100.175 35.4525 99.9986 34.9309 99.7166 34.3106L99.2726 33.2955H95.5725L95.1496 34.3106C94.8959 34.9309 94.7056 35.4596 94.5787 35.8965C94.4518 36.3335 94.3884 36.6438 94.3884 36.827C94.3884 37.1653 94.4589 37.3979 94.5998 37.5248C94.7408 37.6517 94.9945 37.7151 95.361 37.7151L95.4667 37.7997L95.5302 38.6033L95.4879 38.6879C95.3893 38.6879 95.2342 38.6808 95.0227 38.6667C94.8113 38.6527 94.5858 38.6385 94.3461 38.6244C94.1206 38.6104 93.9021 38.5962 93.6907 38.5821C93.4792 38.5681 93.3241 38.561 93.2255 38.561H91.978C91.8794 38.561 91.7314 38.5681 91.534 38.5821C91.3366 38.5962 91.1323 38.6104 90.9208 38.6244C90.7094 38.6385 90.505 38.6527 90.3077 38.6667C90.1245 38.6808 89.9834 38.6879 89.8848 38.6879L89.8636 38.6033L89.9059 37.7997L90.0117 37.7151C90.1949 37.7151 90.3782 37.7011 90.5614 37.6728C90.7446 37.6446 90.9279 37.5812 91.1111 37.4825C91.2943 37.3839 91.4706 37.2499 91.6397 37.0807C91.8229 36.8975 92.0062 36.6649 92.1895 36.3829C92.2317 36.2983 92.2952 36.1714 92.3798 36.0023C92.4643 35.819 92.5983 35.5018 92.7815 35.0507C92.9647 34.5995 93.2184 33.9582 93.5427 33.1264C93.8669 32.2946 94.2967 31.188 94.8324 29.8064L96.6508 25.133L98.152 24.4987H98.3846ZM95.9319 31.7519H98.7017L97.3485 28.009L95.9319 31.7519ZM117.279 27.8398C117.237 27.5297 117.103 27.2688 116.878 27.0574C116.652 26.8318 116.37 26.6556 116.032 26.5287C115.708 26.4018 115.341 26.3102 114.933 26.2538C114.538 26.1975 114.143 26.1692 113.748 26.1692C112.494 26.1692 111.521 26.4864 110.831 27.1208C110.295 27.6001 109.907 28.2416 109.668 29.0451C109.428 29.8346 109.308 30.6945 109.308 31.625C109.308 32.5131 109.428 33.2955 109.668 33.9722C109.921 34.6489 110.26 35.2199 110.683 35.6851C111.12 36.1362 111.634 36.4815 112.226 36.7212C112.818 36.9468 113.467 37.0596 114.171 37.0596C114.777 37.0596 115.475 36.9961 116.265 36.8693C117.068 36.7283 117.822 36.4675 118.527 36.0869L118.781 36.5521L118.273 37.4825C117.54 37.9337 116.8 38.2649 116.053 38.4764C115.32 38.6879 114.566 38.7936 113.791 38.7936C112.734 38.7936 111.775 38.6244 110.915 38.2861C110.055 37.9477 109.315 37.4685 108.695 36.8481C108.089 36.2137 107.617 35.4665 107.279 34.6066C106.94 33.7325 106.771 32.7669 106.771 31.7096C106.771 30.7228 106.919 29.7923 107.215 28.9182C107.525 28.0301 107.976 27.2617 108.568 26.6133C109.174 25.9648 109.914 25.4502 110.788 25.0696C111.676 24.689 112.705 24.4987 113.875 24.4987C114.157 24.4987 114.489 24.5127 114.869 24.541C115.25 24.555 115.651 24.5973 116.074 24.6678C116.497 24.7242 116.92 24.8159 117.343 24.9427C117.78 25.0556 118.196 25.2036 118.59 25.3868L118.654 25.5771L118.379 27.9244H117.343L117.279 27.8398ZM128.875 24.4987L132.512 34.0991C132.638 34.4515 132.75 34.7475 132.85 34.9872C132.948 35.2269 133.025 35.4313 133.082 35.6005C133.152 35.7697 133.209 35.9106 133.252 36.0234C133.308 36.1221 133.357 36.2137 133.4 36.2983C133.569 36.6507 133.738 36.9256 133.907 37.123C134.09 37.3063 134.267 37.4473 134.436 37.546C134.618 37.6305 134.801 37.6799 134.985 37.694C135.168 37.708 135.351 37.7151 135.535 37.7151L135.641 37.7997L135.704 38.6033L135.662 38.6879C135.562 38.6879 135.414 38.6808 135.218 38.6667C135.02 38.6527 134.816 38.6385 134.605 38.6244C134.393 38.6104 134.188 38.5962 133.992 38.5821C133.808 38.5681 133.667 38.561 133.569 38.561H132.025C131.926 38.561 131.764 38.5681 131.539 38.5821C131.313 38.5962 131.074 38.6104 130.82 38.6244C130.58 38.6385 130.347 38.6527 130.122 38.6667C129.896 38.6808 129.734 38.6879 129.636 38.6879L129.594 38.6033L129.657 37.7997L129.742 37.7151C130.107 37.7151 130.382 37.6728 130.566 37.5882C130.763 37.4896 130.862 37.2358 130.862 36.827C130.862 36.6015 130.82 36.2843 130.736 35.8754C130.665 35.4525 130.488 34.9309 130.207 34.3106L129.763 33.2955H126.063L125.64 34.3106C125.386 34.9309 125.196 35.4596 125.069 35.8965C124.942 36.3335 124.879 36.6438 124.879 36.827C124.879 37.1653 124.948 37.3979 125.09 37.5248C125.231 37.6517 125.484 37.7151 125.851 37.7151L125.957 37.7997L126.02 38.6033L125.978 38.6879C125.879 38.6879 125.724 38.6808 125.513 38.6667C125.302 38.6527 125.075 38.6385 124.836 38.6244C124.61 38.6104 124.392 38.5962 124.181 38.5821C123.969 38.5681 123.814 38.561 123.715 38.561H122.468C122.369 38.561 122.221 38.5681 122.024 38.5821C121.827 38.5962 121.622 38.6104 121.411 38.6244C121.199 38.6385 120.995 38.6527 120.798 38.6667C120.614 38.6808 120.473 38.6879 120.375 38.6879L120.354 38.6033L120.396 37.7997L120.502 37.7151C120.685 37.7151 120.868 37.7011 121.051 37.6728C121.235 37.6446 121.418 37.5812 121.601 37.4825C121.784 37.3839 121.96 37.2499 122.13 37.0807C122.313 36.8975 122.496 36.6649 122.679 36.3829C122.722 36.2983 122.785 36.1714 122.87 36.0023C122.954 35.819 123.088 35.5018 123.271 35.0507C123.455 34.5995 123.708 33.9582 124.033 33.1264C124.357 32.2946 124.787 31.188 125.323 29.8064L127.141 25.133L128.642 24.4987H128.875ZM126.422 31.7519H129.192L127.839 28.009L126.422 31.7519ZM151.053 24.689L150.99 25.4925L150.905 25.5771C150.709 25.5771 150.497 25.5912 150.271 25.6194C150.06 25.6335 149.89 25.6899 149.764 25.7886C149.652 25.8872 149.539 26.0141 149.425 26.1692C149.327 26.3243 149.264 26.5992 149.235 26.9939C149.235 27.1631 149.229 27.3323 149.214 27.5014C149.214 27.6706 149.208 27.875 149.193 28.1147C149.193 28.3544 149.193 28.6433 149.193 28.9817C149.193 29.32 149.193 29.7359 149.193 30.2293V33.8665C149.193 34.5572 149.073 35.2058 148.833 35.812C148.608 36.404 148.27 36.9256 147.818 37.3768C147.368 37.8138 146.804 38.1592 146.127 38.413C145.465 38.6667 144.704 38.7936 143.843 38.7936C142.786 38.7936 141.898 38.6667 141.179 38.413C140.475 38.1592 139.911 37.8138 139.488 37.3768C139.065 36.9256 138.763 36.404 138.579 35.812C138.396 35.2058 138.304 34.5572 138.304 33.8665V30.2293C138.304 29.7359 138.304 29.32 138.304 28.9817C138.304 28.6433 138.304 28.3544 138.304 28.1147C138.304 27.875 138.298 27.6706 138.283 27.5014C138.283 27.3323 138.276 27.1631 138.261 26.9939C138.234 26.6133 138.163 26.3384 138.05 26.1692C137.952 26 137.846 25.8732 137.733 25.7886C137.606 25.6758 137.444 25.6123 137.247 25.5983C137.05 25.5842 136.839 25.5771 136.612 25.5771L136.507 25.4925L136.443 24.689L136.485 24.6044C136.585 24.6044 136.747 24.6115 136.972 24.6255C137.198 24.6396 137.431 24.6538 137.669 24.6678C137.909 24.6819 138.142 24.6961 138.367 24.7101C138.594 24.7242 138.755 24.7313 138.853 24.7313H140.101C140.2 24.7313 140.362 24.7242 140.587 24.7101C140.814 24.6961 141.046 24.6819 141.285 24.6678C141.525 24.6538 141.758 24.6396 141.983 24.6255C142.209 24.6115 142.371 24.6044 142.469 24.6044L142.511 24.689L142.448 25.4925L142.363 25.5771C142.167 25.5771 141.955 25.5912 141.729 25.6194C141.518 25.6335 141.348 25.6899 141.222 25.7886C141.11 25.8872 141.004 26.0141 140.904 26.1692C140.806 26.3243 140.743 26.5992 140.714 26.9939C140.7 27.1913 140.687 27.3746 140.672 27.5437C140.672 27.7129 140.666 27.9103 140.651 28.1358C140.651 28.3613 140.651 28.6363 140.651 28.9605C140.651 29.2848 140.651 29.7007 140.651 30.2082V33.2744C140.651 34.5855 140.904 35.523 141.412 36.0869C141.934 36.6367 142.73 36.9116 143.801 36.9116C144.281 36.9116 144.725 36.8481 145.133 36.7212C145.542 36.5803 145.894 36.3618 146.19 36.0657C146.486 35.7697 146.719 35.3961 146.888 34.945C147.057 34.4797 147.142 33.9228 147.142 33.2744V30.2082C147.142 29.7007 147.142 29.2848 147.142 28.9605C147.142 28.6363 147.136 28.3613 147.121 28.1358C147.121 27.9103 147.114 27.7129 147.1 27.5437C147.1 27.3746 147.093 27.1913 147.078 26.9939C147.051 26.5851 146.98 26.3032 146.867 26.1481C146.769 25.993 146.663 25.8732 146.55 25.7886C146.438 25.6758 146.275 25.6123 146.063 25.5983C145.867 25.5842 145.656 25.5771 145.429 25.5771L145.323 25.4925L145.26 24.689L145.302 24.6044C145.402 24.6044 145.55 24.6115 145.746 24.6255C145.944 24.6396 146.148 24.6538 146.359 24.6678C146.586 24.6819 146.797 24.6961 146.994 24.7101C147.192 24.7242 147.34 24.7313 147.438 24.7313H148.749C148.848 24.7313 149.002 24.7242 149.214 24.7101C149.425 24.6961 149.644 24.6819 149.869 24.6678C150.109 24.6538 150.335 24.6396 150.546 24.6255C150.757 24.6115 150.913 24.6044 151.011 24.6044L151.053 24.689ZM156.053 27.9244C156.053 28.2909 156.152 28.601 156.349 28.8548C156.546 29.1086 156.814 29.3341 157.153 29.5315C157.491 29.7147 157.885 29.891 158.337 30.0601C158.787 30.2293 159.267 30.4056 159.775 30.5888C160.282 30.7862 160.768 30.9977 161.233 31.2232C161.699 31.4347 162.107 31.7025 162.46 32.0268C162.826 32.3369 163.115 32.7105 163.327 33.1475C163.552 33.5704 163.665 34.085 163.665 34.6912C163.665 35.3115 163.544 35.8754 163.306 36.3829C163.066 36.8764 162.72 37.3063 162.27 37.6728C161.832 38.0252 161.289 38.3001 160.641 38.4975C160.007 38.6949 159.294 38.7936 158.506 38.7936C157.66 38.7936 156.814 38.6879 155.969 38.4764C155.123 38.2649 154.368 37.976 153.706 37.6094L153.622 37.3345L154.108 34.5009H155.06L155.165 34.6278C155.25 35.6005 155.573 36.2912 156.138 36.7001C156.715 37.109 157.497 37.3133 158.485 37.3133C159.457 37.3133 160.161 37.1442 160.599 36.8058C161.036 36.4534 161.255 35.9388 161.255 35.2621C161.255 34.8252 161.163 34.4657 160.98 34.1837C160.796 33.9017 160.536 33.6621 160.197 33.4647C159.873 33.2673 159.479 33.0912 159.013 32.936C158.548 32.7809 158.033 32.5977 157.47 32.3862C156.962 32.203 156.49 32.0056 156.053 31.7941C155.615 31.5686 155.235 31.3078 154.912 31.0117C154.601 30.7016 154.354 30.335 154.171 29.9121C153.987 29.4892 153.897 28.9817 153.897 28.3896C153.897 27.149 154.298 26.1904 155.102 25.5137C155.919 24.837 157.159 24.4987 158.823 24.4987C159.584 24.4987 160.296 24.5903 160.959 24.7736C161.62 24.9427 162.178 25.1471 162.629 25.3868L162.714 25.6194L162.375 28.0301H161.36L161.255 27.9244C161.17 27.3323 160.916 26.8741 160.493 26.5499C160.071 26.2256 159.479 26.0635 158.717 26.0635C157.872 26.0635 157.216 26.2327 156.751 26.571C156.286 26.9093 156.053 27.3605 156.053 27.9244ZM172.557 24.7313C172.754 24.7313 173.043 24.7313 173.423 24.7313C173.819 24.7172 174.221 24.703 174.629 24.689C175.038 24.6749 175.405 24.6678 175.728 24.6678C176.053 24.6538 176.251 24.6467 176.32 24.6467L176.447 24.8581L176.341 27.586H175.39L175.305 27.5014C175.278 27.2336 175.236 27.0222 175.178 26.867C175.136 26.7119 175.009 26.5992 174.798 26.5287C174.586 26.4582 174.256 26.4159 173.804 26.4018C173.368 26.3878 172.754 26.3807 171.965 26.3807H170.759L170.738 26.571C170.725 26.7684 170.711 26.9516 170.696 27.1208C170.696 27.29 170.69 27.4874 170.675 27.7129C170.675 27.9384 170.675 28.2133 170.675 28.5376C170.675 28.8619 170.675 29.2777 170.675 29.7852V30.5042C171.013 30.4902 171.338 30.4902 171.647 30.5042C171.958 30.5042 172.247 30.4971 172.514 30.4831C172.783 30.469 173.008 30.4479 173.191 30.4196C173.389 30.3773 173.529 30.3139 173.614 30.2293C173.756 30.0884 173.825 29.891 173.825 29.6372L173.931 29.5315L174.713 29.4892L174.798 29.5315C174.77 29.8558 174.742 30.1376 174.713 30.3773C174.7 30.617 174.692 30.8919 174.692 31.202C174.692 31.5404 174.7 31.8576 174.713 32.1536C174.742 32.4356 174.77 32.7457 174.798 33.0841L174.713 33.1264L173.91 33.0841L173.825 33.0206C173.825 32.6682 173.762 32.4074 173.635 32.2382C173.523 32.0831 173.198 31.9985 172.662 31.9845C172.141 31.9562 171.557 31.9422 170.907 31.9422H170.675V33.6762C170.675 34.085 170.675 34.4234 170.675 34.6912C170.69 34.959 170.696 35.1916 170.696 35.389C170.711 35.5723 170.725 35.7485 170.738 35.9177C170.753 36.0869 170.767 36.2843 170.781 36.5098C170.795 36.7776 170.936 36.9116 171.203 36.9116H172.155C172.958 36.9116 173.586 36.8975 174.037 36.8693C174.502 36.841 174.855 36.7776 175.094 36.679C175.334 36.5661 175.503 36.4111 175.601 36.2137C175.714 36.0163 175.813 35.7485 175.897 35.4102L175.982 35.3256H176.976L176.574 38.4341L176.405 38.6456C176.335 38.6456 176.158 38.6385 175.876 38.6244C175.609 38.6244 175.305 38.6173 174.967 38.6033C174.629 38.5892 174.29 38.575 173.952 38.561C173.614 38.561 173.346 38.561 173.149 38.561H168.878C168.779 38.561 168.618 38.5681 168.391 38.5821C168.166 38.5962 167.934 38.6104 167.694 38.6244C167.455 38.6385 167.222 38.6527 166.996 38.6667C166.771 38.6808 166.609 38.6879 166.509 38.6879L166.467 38.6033L166.531 37.7997L166.636 37.7151C166.863 37.7151 167.074 37.708 167.271 37.694C167.468 37.6657 167.63 37.6023 167.757 37.5037C167.87 37.405 167.976 37.2781 168.074 37.123C168.187 36.9679 168.258 36.693 168.286 36.2983C168.286 36.1997 168.286 36.0869 168.286 35.96C168.3 35.819 168.307 35.6499 168.307 35.4525C168.322 35.2551 168.328 35.0155 168.328 34.7335C168.328 34.4515 168.328 34.0991 168.328 33.6762V30.2293C168.328 29.7359 168.328 29.32 168.328 28.9817C168.328 28.6433 168.328 28.3544 168.328 28.1147C168.328 27.875 168.322 27.6706 168.307 27.5014C168.307 27.3323 168.3 27.1631 168.286 26.9939C168.258 26.6133 168.187 26.3384 168.074 26.1692C167.976 26 167.87 25.8732 167.757 25.7886C167.63 25.6758 167.468 25.6123 167.271 25.5983C167.074 25.5842 166.863 25.5771 166.636 25.5771L166.531 25.4925L166.467 24.689L166.509 24.6044C166.609 24.6044 166.771 24.6115 166.996 24.6255C167.222 24.6396 167.461 24.6538 167.715 24.6678C167.983 24.6819 168.237 24.6961 168.476 24.7101C168.73 24.7242 168.935 24.7313 169.089 24.7313H172.557ZM182.372 27.9244C182.372 28.2909 182.471 28.601 182.668 28.8548C182.865 29.1086 183.133 29.3341 183.472 29.5315C183.81 29.7147 184.204 29.891 184.656 30.0601C185.106 30.2293 185.586 30.4056 186.094 30.5888C186.601 30.7862 187.087 30.9977 187.552 31.2232C188.018 31.4347 188.426 31.7025 188.779 32.0268C189.144 32.3369 189.434 32.7105 189.646 33.1475C189.871 33.5704 189.984 34.085 189.984 34.6912C189.984 35.3115 189.863 35.8754 189.625 36.3829C189.385 36.8764 189.039 37.3063 188.589 37.6728C188.151 38.0252 187.608 38.3001 186.96 38.4975C186.326 38.6949 185.613 38.7936 184.825 38.7936C183.979 38.7936 183.133 38.6879 182.288 38.4764C181.442 38.2649 180.687 37.976 180.025 37.6094L179.941 37.3345L180.427 34.5009H181.379L181.484 34.6278C181.569 35.6005 181.892 36.2912 182.457 36.7001C183.034 37.109 183.816 37.3133 184.804 37.3133C185.776 37.3133 186.48 37.1442 186.918 36.8058C187.355 36.4534 187.574 35.9388 187.574 35.2621C187.574 34.8252 187.482 34.4657 187.299 34.1837C187.115 33.9017 186.855 33.6621 186.516 33.4647C186.192 33.2673 185.798 33.0912 185.332 32.936C184.867 32.7809 184.352 32.5977 183.789 32.3862C183.281 32.203 182.809 32.0056 182.372 31.7941C181.934 31.5686 181.554 31.3078 181.23 31.0117C180.92 30.7016 180.673 30.335 180.49 29.9121C180.306 29.4892 180.216 28.9817 180.216 28.3896C180.216 27.149 180.617 26.1904 181.421 25.5137C182.238 24.837 183.478 24.4987 185.142 24.4987C185.903 24.4987 186.615 24.5903 187.278 24.7736C187.939 24.9427 188.497 25.1471 188.948 25.3868L189.033 25.6194L188.694 28.0301H187.679L187.574 27.9244C187.489 27.3323 187.235 26.8741 186.812 26.5499C186.39 26.2256 185.798 26.0635 185.036 26.0635C184.191 26.0635 183.535 26.2327 183.07 26.571C182.605 26.9093 182.372 27.3605 182.372 27.9244Z" fill="#F1F1F1"/>
</svg>
