<svg width="14" height="12" viewBox="0 0 14 12" fill="none" xmlns="http://www.w3.org/2000/svg">
<g clip-path="url(#clip0_331_2)">
<path d="M7.99993 11.7422H5.63905C5.34812 11.7422 5.11384 11.5289 5.11384 11.2641V10.4508C4.92847 10.3922 4.74825 10.3242 4.5706 10.2445L3.93726 10.8211C3.73129 11.0086 3.39917 11.0086 3.1932 10.8211L1.52488 9.30234C1.31891 9.11484 1.31891 8.8125 1.52488 8.625L2.15823 8.04844C2.07326 7.88672 1.99603 7.72266 1.93166 7.55391H1.03571C0.744784 7.55391 0.510498 7.34062 0.510498 7.07578V4.92656C0.510498 4.66172 0.744784 4.44844 1.03571 4.44844H1.92909C1.99345 4.27969 2.06812 4.11562 2.15565 3.95391L1.52488 3.375C1.31891 3.1875 1.31891 2.88516 1.52488 2.69766L3.1932 1.17891C3.39917 0.991406 3.73129 0.991406 3.93726 1.17891L4.5706 1.75547C4.74825 1.67813 4.92847 1.60781 5.11384 1.54922V0.735937C5.11384 0.471094 5.34812 0.257812 5.63905 0.257812H7.99993C8.29086 0.257812 8.52515 0.471094 8.52515 0.735937V1.54922C8.71052 1.60781 8.89074 1.67578 9.06838 1.75547L9.70173 1.18125C9.90769 0.99375 10.2398 0.99375 10.4458 1.18125L12.1141 2.7C12.2119 2.78906 12.2686 2.91094 12.2686 3.0375C12.2686 3.16406 12.2119 3.28594 12.1141 3.375L11.4808 3.95156C11.5657 4.11328 11.643 4.27734 11.7073 4.44609H12.6007C12.8916 4.44609 13.1259 4.65938 13.1259 4.92422V7.07344C13.1259 7.33828 12.8916 7.55156 12.6007 7.55156H11.7073C11.643 7.72031 11.5683 7.88437 11.4808 8.04609L12.1141 8.62266C12.2119 8.71172 12.2686 8.83359 12.2686 8.96016C12.2686 9.08672 12.2119 9.20859 12.1141 9.29766L10.4458 10.8164C10.2398 11.0039 9.90769 11.0039 9.70173 10.8164L9.06838 10.2398C8.89074 10.3172 8.71052 10.3875 8.52515 10.4461V11.2594C8.52515 11.5289 8.28829 11.7422 7.99993 11.7422V11.7422ZM6.16426 10.7859H7.47215V10.0969C7.47215 9.87891 7.63434 9.68906 7.86606 9.63281C8.2265 9.54609 8.57406 9.41484 8.89846 9.24141C9.10443 9.13125 9.36703 9.16172 9.53438 9.31641L10.0699 9.80391L10.9942 8.9625L10.4587 8.475C10.2887 8.32031 10.2553 8.08359 10.3763 7.89375C10.5668 7.59844 10.711 7.28203 10.8062 6.95391C10.8654 6.74297 11.0765 6.59766 11.3134 6.59766H12.0703V5.40703H11.3134C11.074 5.40703 10.8654 5.25937 10.8062 5.05078C10.711 4.72266 10.5668 4.40625 10.3763 4.11094C10.2553 3.92344 10.2887 3.68437 10.4587 3.53203L10.9942 3.04453L10.0699 2.20312L9.53438 2.69063C9.36446 2.84531 9.10443 2.87578 8.89846 2.76562C8.57406 2.59219 8.2265 2.46094 7.86606 2.37422C7.63434 2.31797 7.47215 2.12813 7.47215 1.91016V1.21406H6.16426V1.90312C6.16426 2.12109 6.00206 2.31094 5.77035 2.36719C5.40991 2.45391 5.06234 2.58516 4.73795 2.75859C4.53198 2.86875 4.26938 2.83828 4.10203 2.68359L3.56652 2.19609L2.64225 3.0375L3.17776 3.525C3.34768 3.67969 3.38115 3.91641 3.26014 4.10391C3.06962 4.39922 2.92545 4.71562 2.83019 5.04375C2.7684 5.25469 2.55986 5.40234 2.32042 5.40234H1.5635V6.59297H2.32042C2.55986 6.59297 2.7684 6.74063 2.83019 6.95156C2.92545 7.27969 3.06962 7.59609 3.26014 7.89141C3.38115 8.07891 3.34768 8.31797 3.17776 8.47031L2.64225 8.95781L3.56652 9.79922L4.10203 9.31172C4.27195 9.15703 4.53456 9.12656 4.73795 9.23672C5.06234 9.41016 5.40991 9.54141 5.77035 9.62812C6.00206 9.68437 6.16426 9.87422 6.16426 10.0922V10.7859V10.7859Z" fill="#0F0F0F"/>
<path d="M6.81821 8.81699C5.11127 8.81699 3.72357 7.55371 3.72357 5.9998C3.72357 4.4459 5.11127 3.18262 6.81821 3.18262C8.52515 3.18262 9.91542 4.4459 9.91542 5.9998C9.91542 7.55371 8.52515 8.81699 6.81821 8.81699ZM6.81821 4.13887C5.69055 4.13887 4.774 4.97324 4.774 5.9998C4.774 7.02637 5.69055 7.86074 6.81821 7.86074C7.94587 7.86074 8.86242 7.02637 8.86242 5.9998C8.86242 4.97324 7.94587 4.13887 6.81821 4.13887V4.13887Z" fill="#0F0F0F"/>
</g>
<defs>
<clipPath id="clip0_331_2">
<rect width="13.1818" height="12" fill="white" transform="translate(0.227295)"/>
</clipPath>
</defs>
</svg>
